<?xml version="1.0" encoding="UTF-8"?>
<svg width="36px" height="17px" viewBox="0 0 36 17" version="1.1" xmlns="http://www.w3.org/2000/svg" xmlns:xlink="http://www.w3.org/1999/xlink">
    <!-- Generator: Sketch 52.4 (67378) - http://www.bohemiancoding.com/sketch -->
    <title>arrow-right</title>
    <desc>Created with Sketch.</desc>
    <g id="Boame-mobile-app" stroke="none" stroke-width="1" fill="none" fill-rule="evenodd">
        <g id="Published-Articles" transform="translate(-39.000000, -696.000000)" fill="#FFFFFF">
            <g id="arrow-right" transform="translate(39.000000, 696.000000)">
                <path d="M35.5875292,7.52956002 C35.5871073,7.52914873 35.5867558,7.52866889 35.5862636,7.5282576 L28.2383297,0.399221333 C27.6878534,-0.134839451 26.7974867,-0.132851547 26.2495417,0.403882626 C25.7016669,0.94054825 25.7037763,1.80857696 26.2542526,2.3427063 L31.1876564,7.12903157 L1.4062493,7.12903157 C0.629577813,7.12903157 0,7.74281417 0,8.50000008 C0,9.25718599 0.629577813,9.87096859 1.4062493,9.87096859 L31.1875861,9.87096859 L26.2543229,14.6572939 C25.7038466,15.1914232 25.7017372,16.0594519 26.249612,16.5961175 C26.797557,17.1329203 27.6879941,17.1347711 28.2384001,16.6007788 L35.5863339,9.47174256 C35.5867558,9.47133127 35.5871073,9.47085143 35.5875995,9.47044014 C36.1383571,8.93452855 36.1365993,8.06368935 35.5875292,7.52956002 Z" id="Path"></path>
            </g>
        </g>
    </g>
</svg>