<?xml version="1.0" encoding="UTF-8"?>
<svg width="18px" height="10px" viewBox="0 0 18 10" version="1.1" xmlns="http://www.w3.org/2000/svg" xmlns:xlink="http://www.w3.org/1999/xlink">
    <!-- Generator: Sketch 52.4 (67378) - http://www.bohemiancoding.com/sketch -->
    <title>Path</title>
    <desc>Created with Sketch.</desc>
    <g id="Boame-mobile-app" stroke="none" stroke-width="1" fill="none" fill-rule="evenodd">
        <g id="Cases-Reported" transform="translate(-149.000000, -380.000000)" fill="#FFFFFF">
            <g id="Group-2" transform="translate(15.000000, 235.000000)">
                <g id="arrow(1)-copy" transform="translate(134.000000, 145.000000)">
                    <path d="M17.7937646,4.42915295 C17.7935537,4.42891102 17.7933779,4.42862876 17.7931318,4.42838682 L14.1191649,0.234836078 C13.8439267,-0.0793173241 13.3987434,-0.0781479686 13.1247708,0.237578015 C12.8508335,0.553263677 12.8518882,1.0638688 13.1271263,1.37806253 L15.5938282,4.19354798 L0.703124651,4.19354798 C0.314788906,4.19354798 0,4.55459657 0,5.00000005 C0,5.44540352 0.314788906,5.80645211 0.703124651,5.80645211 L15.593793,5.80645211 L13.1271615,8.62193757 C12.8519233,8.93613129 12.8508686,9.44673642 13.124806,9.76242208 C13.3987785,10.0781884 13.843997,10.0792771 14.1192,9.76516401 L17.793167,5.57161327 C17.7933779,5.57137134 17.7935537,5.57108908 17.7937998,5.57084714 C18.0691785,5.25560503 18.0682996,4.74334668 17.7937646,4.42915295 Z" id="Path"></path>
                </g>
            </g>
        </g>
    </g>
</svg>