<?xml version="1.0" encoding="UTF-8"?>
<svg width="30px" height="28px" viewBox="0 0 30 28" version="1.1" xmlns="http://www.w3.org/2000/svg" xmlns:xlink="http://www.w3.org/1999/xlink">
    <!-- Generator: Sketch 52.4 (67378) - http://www.bohemiancoding.com/sketch -->
    <title>chat-19</title>
    <desc>Created with Sketch.</desc>
    <g id="Boame-mobile-app" stroke="none" stroke-width="1" fill="none" fill-rule="evenodd">
        <g id="Online-Conversation" transform="translate(-255.000000, -673.000000)" fill="#FFFFFF">
            <g id="Group" transform="translate(238.000000, 653.000000)">
                <g id="chat-19" transform="translate(17.000000, 20.000000)">
                    <path d="M5.52941176,8 L13.4705882,8 C13.7633529,8 14,7.776 14,7.5 C14,7.224 13.7633529,7 13.4705882,7 L5.52941176,7 C5.23664706,7 5,7.224 5,7.5 C5,7.776 5.23664706,8 5.52941176,8 Z" id="Path"></path>
                    <path d="M23.5,11 L6.5,11 C6.2235,11 6,11.224 6,11.5 C6,11.776 6.2235,12 6.5,12 L23.5,12 C23.7765,12 24,11.776 24,11.5 C24,11.224 23.7765,11 23.5,11 Z" id="Path"></path>
                    <path d="M23.5,15 L6.5,15 C6.2235,15 6,15.224 6,15.5 C6,15.776 6.2235,16 6.5,16 L23.5,16 C23.7765,16 24,15.776 24,15.5 C24,15.224 23.7765,15 23.5,15 Z" id="Path"></path>
                    <path d="M27,0 L3,0 C1.374,0 0,1.374 0,3 L0,19.5 C0,21.126 1.374,22.5 3,22.5 L7,22.5 L7,27.5 C7,27.7065 7.127,27.892 7.32,27.9665 C7.3785,27.989 7.4395,28 7.5,28 C7.638,28 7.7735,27.9425 7.87,27.8365 L12.721,22.5 L27,22.5 C28.626,22.5 30,21.126 30,19.5 L30,3 C30,1.374 28.626,0 27,0 Z M29,19.5 C29,20.584 28.084,21.5 27,21.5 L13.5895,21.5 L15.379,19.4195 C15.559,19.2105 15.5355,18.8945 15.3265,18.7145 C15.117,18.5355 14.8015,18.5585 14.6215,18.7675 L12.1305,21.6635 L8,26.207 L8,22 C8,21.724 7.7765,21.5 7.5,21.5 L3,21.5 C1.916,21.5 1,20.584 1,19.5 L1,3 C1,1.916 1.916,1 3,1 L27,1 C28.084,1 29,1.916 29,3 L29,19.5 Z" id="Shape" fill-rule="nonzero"></path>
                </g>
            </g>
        </g>
    </g>
</svg>