<?xml version="1.0" encoding="UTF-8"?>
<svg width="25px" height="25px" viewBox="0 0 25 25" version="1.1" xmlns="http://www.w3.org/2000/svg" xmlns:xlink="http://www.w3.org/1999/xlink">
    <!-- Generator: Sketch 52.4 (67378) - http://www.bohemiancoding.com/sketch -->
    <title>dislike</title>
    <desc>Created with Sketch.</desc>
    <g id="Boame-mobile-app" stroke="none" stroke-width="1" fill="none" fill-rule="evenodd" opacity="0.2">
        <g id="Watch-Video" transform="translate(-60.000000, -276.000000)" fill="#000000" fill-rule="nonzero">
            <g id="dislike" transform="translate(60.000000, 276.000000)">
                <path d="M17.7272727,0 L17.7272727,0.862068966 L5,0.862068966 C3.74681818,0.862068966 2.72727273,1.82887931 2.72727273,3.01724138 C2.72727273,3.51896552 2.90909091,3.98103448 3.21318182,4.34784483 C2.16136364,4.5362069 1.36363636,5.41422414 1.36363636,6.46551724 C1.36363636,6.96724138 1.54545455,7.42931034 1.84954545,7.79612069 C0.797727273,7.98448276 0,8.8625 0,9.9137931 C0,10.9892241 0.625,11.4922414 1.23409091,11.7383621 C0.756818182,12.1336207 0.454545455,12.7150862 0.454545455,13.362069 C0.454545455,14.550431 1.47409091,15.5172414 2.72727273,15.5172414 L9.25727273,15.5172414 L8.92590909,16.987069 C8.48363636,18.9487069 8.77409091,21.175431 8.87318182,21.8107759 C9.10863636,23.3163793 10.5127273,25 12.0395455,25 L12.1481818,25 C12.8736364,25 14.0909091,24.6081897 14.0909091,21.9827586 C14.0909091,18.524569 15.0009091,16.9422414 15.7640909,16.2241379 C16.5127273,15.5198276 17.235,15.5288793 17.2727273,15.5172414 L17.7272727,15.5172414 L17.7272727,16.3793103 L25,16.3793103 L25,0 L17.7272727,0 Z M17.2868182,14.6556034 C17.245,14.6521552 16.1872727,14.6344828 15.1586364,15.5797414 C13.8468182,16.7849138 13.1818182,18.9392241 13.1818182,21.9827586 C13.1818182,22.7875 13.0477273,24.137931 12.1481818,24.137931 L12.0395455,24.137931 C11.0254545,24.137931 9.945,22.7887931 9.77227273,21.6849138 C9.67818182,21.0849138 9.40409091,18.9875 9.81454545,17.1676724 L10.3813636,14.6551724 L2.72727273,14.6551724 C1.97545455,14.6551724 1.36363636,14.075 1.36363636,13.362069 C1.36363636,12.6491379 1.97545455,12.0689655 2.72727273,12.0689655 L3.63636364,12.0689655 L4.09090909,12.0689655 L7.27272727,12.0689655 C7.52363636,12.0689655 7.72727273,11.8762931 7.72727273,11.637931 C7.72727273,11.399569 7.52363636,11.2068966 7.27272727,11.2068966 L4.09090909,11.2068966 C3.68954545,11.2068966 2.80681818,11.1896552 2.33909091,11.1237069 C1.15227273,10.9568966 0.909090909,10.5193966 0.909090909,9.9137931 C0.909090909,9.20086207 1.52090909,8.62068966 2.27272727,8.62068966 L3.63636364,8.62068966 L7.27272727,8.62068966 C7.52363636,8.62068966 7.72727273,8.42801724 7.72727273,8.18965517 C7.72727273,7.9512931 7.52363636,7.75862069 7.27272727,7.75862069 L3.63636364,7.75862069 C2.88454545,7.75862069 2.27272727,7.17844828 2.27272727,6.46551724 C2.27272727,5.75258621 2.88454545,5.17241379 3.63636364,5.17241379 L4.54545455,5.17241379 L5,5.17241379 L8.18181818,5.17241379 C8.43272727,5.17241379 8.63636364,4.97974138 8.63636364,4.74137931 C8.63636364,4.50301724 8.43272727,4.31034483 8.18181818,4.31034483 L5,4.31034483 C4.24818182,4.31034483 3.63636364,3.73017241 3.63636364,3.01724138 C3.63636364,2.30431034 4.24818182,1.72413793 5,1.72413793 L17.7272727,1.72413793 L17.7272727,14.6551724 L17.2868182,14.6556034 Z M24.0909091,15.5172414 L18.6363636,15.5172414 L18.6363636,0.862068966 L24.0909091,0.862068966 L24.0909091,15.5172414 Z" id="Shape"></path>
                <path d="M21.6346154,6.48148148 C22.9600962,6.48148148 24.0384615,5.44305556 24.0384615,4.16666667 C24.0384615,2.89027778 22.9600962,1.85185185 21.6346154,1.85185185 C20.3091346,1.85185185 19.2307692,2.89027778 19.2307692,4.16666667 C19.2307692,5.44305556 20.3091346,6.48148148 21.6346154,6.48148148 Z M21.6346154,2.77777778 C22.4298077,2.77777778 23.0769231,3.40092593 23.0769231,4.16666667 C23.0769231,4.93240741 22.4298077,5.55555556 21.6346154,5.55555556 C20.8394231,5.55555556 20.1923077,4.93240741 20.1923077,4.16666667 C20.1923077,3.40092593 20.8394231,2.77777778 21.6346154,2.77777778 Z" id="Shape"></path>
            </g>
        </g>
    </g>
</svg>