<?xml version="1.0" encoding="UTF-8"?>
<svg width="14px" height="7px" viewBox="0 0 14 7" version="1.1" xmlns="http://www.w3.org/2000/svg" xmlns:xlink="http://www.w3.org/1999/xlink">
    <!-- Generator: Sketch 52.4 (67378) - http://www.bohemiancoding.com/sketch -->
    <title>down-arrow</title>
    <desc>Created with Sketch.</desc>
    <g id="Boame-mobile-app" stroke="none" stroke-width="1" fill="none" fill-rule="evenodd">
        <g id="Published-Videos" transform="translate(-278.000000, -607.000000)" fill="#FFFFFF">
            <g id="down-arrow" transform="translate(278.000000, 607.000000)">
                <path d="M13.4761419,0.0890135144 L6.99596276,6.29663566 L0.515783626,0.0890135144 C0.394891043,-0.0228480902 0.202210464,-0.0196231527 0.0854265739,0.096173969 C-0.0284755246,0.209156103 -0.0284755246,0.388249456 0.0854265739,0.50120426 L6.78108382,6.91464848 C6.89992206,7.02845051 7.09257411,7.02845051 7.21144088,6.91464848 L13.9070981,0.50120426 C14.0279907,0.389342655 14.031329,0.204810636 13.9145737,0.0889861845 C13.7977898,-0.0268109372 13.6051377,-0.0300085447 13.4842166,0.0818257299 C13.4816772,0.0841761081 13.4791949,0.0865538163 13.4767411,0.0889861845 L13.4761419,0.0890135144 Z" id="Path"></path>
                <path d="M6.99658155,6.99999954 C6.91580569,7.00013619 6.83828254,6.96952817 6.78110316,6.91487099 L0.0854373828,0.50175269 C-0.031346656,0.385961453 -0.0279798061,0.201411483 0.0929129308,0.0895555627 C0.210866807,-0.0195401697 0.397841106,-0.0195401697 0.51576645,0.0895555627 L6.99655302,6.29628834 L13.4767404,0.0889816623 C13.5935244,-0.0268095747 13.7861767,-0.0300070198 13.907098,0.0818215717 C14.0279907,0.193677492 14.0313291,0.378200133 13.9145736,0.494018699 C13.9121197,0.496450943 13.9096374,0.498828531 13.907098,0.50117879 L7.21146076,6.91429709 C7.15450964,6.96900892 7.07721476,6.99980824 6.99658155,6.99999954 Z" id="Path"></path>
            </g>
        </g>
    </g>
</svg>