<?xml version="1.0" encoding="UTF-8"?>
<svg width="14px" height="8px" viewBox="0 0 14 8" version="1.1" xmlns="http://www.w3.org/2000/svg" xmlns:xlink="http://www.w3.org/1999/xlink">
    <!-- Generator: Sketch 52.4 (67378) - http://www.bohemiancoding.com/sketch -->
    <title>down-arrow</title>
    <desc>Created with Sketch.</desc>
    <g id="Boame-mobile-app" stroke="none" stroke-width="1" fill="none" fill-rule="evenodd">
        <g id="Select-a-role" transform="translate(-270.000000, -396.000000)" fill="#3370A3">
            <g id="down-arrow" transform="translate(270.000000, 396.000000)">
                <path d="M13.4761419,0.101729731 L6.99596276,7.19615504 L0.515783626,0.101729731 C0.394891043,-0.0261121031 0.202210464,-0.0224264602 0.0854265739,0.109913107 C-0.0284755246,0.239035546 -0.0284755246,0.443713664 0.0854265739,0.572804868 L6.78108382,7.9024554 C6.89992206,8.03251487 7.09257411,8.03251487 7.21144088,7.9024554 L13.9070981,0.572804868 C14.0279907,0.444963035 14.031329,0.234069298 13.9145737,0.101698497 C13.7977898,-0.0306410711 13.6051377,-0.0342954797 13.4842166,0.0935151199 C13.4816772,0.0962012664 13.4791949,0.0989186472 13.4767411,0.101698497 L13.4761419,0.101729731 Z" id="Path"></path>
                <path d="M6.99658155,7.99999948 C6.91580569,8.00015564 6.83828254,7.96517505 6.78110316,7.9027097 L0.0854373828,0.573431646 C-0.031346656,0.441098803 -0.0279798061,0.230184552 0.0929129308,0.102349215 C0.210866807,-0.0223316225 0.397841106,-0.0223316225 0.51576645,0.102349215 L6.99655302,7.19575811 L13.4767404,0.101693328 C13.5935244,-0.0306395139 13.7861767,-0.0342937369 13.907098,0.0935103676 C14.0279907,0.221345705 14.0313291,0.432228724 13.9145736,0.564592799 C13.9121197,0.567372507 13.9096374,0.570089749 13.907098,0.57277576 L7.21146076,7.90205381 C7.15450964,7.96458163 7.07721476,7.99978085 6.99658155,7.99999948 Z" id="Path"></path>
            </g>
        </g>
    </g>
</svg>