<?xml version="1.0" encoding="UTF-8"?>
<svg width="12px" height="6px" viewBox="0 0 12 6" version="1.1" xmlns="http://www.w3.org/2000/svg" xmlns:xlink="http://www.w3.org/1999/xlink">
    <!-- Generator: Sketch 52.4 (67378) - http://www.bohemiancoding.com/sketch -->
    <title>down-arrow</title>
    <desc>Created with Sketch.</desc>
    <g id="Boame-mobile-app" stroke="none" stroke-width="1" fill="none" fill-rule="evenodd">
        <g id="Become-a-Volunteer" transform="translate(-276.000000, -281.000000)">
            <g id="down-arrow" transform="translate(276.000000, 281.000000)">
                <path d="M11.5509788,0.0762972981 L5.99653951,5.39711628 L0.442100251,0.0762972981 C0.338478037,-0.0195840773 0.173323255,-0.0168198451 0.0732227776,0.0824348305 C-0.0244075925,0.179276659 -0.0244075925,0.332785248 0.0732227776,0.429603651 L5.81235756,5.92684155 C5.91421891,6.02438615 6.07934923,6.02438615 6.18123504,5.92684155 L11.9203698,0.429603651 C12.023992,0.333722276 12.0268534,0.175551974 11.9267774,0.0762738724 C11.8266769,-0.0229808033 11.6615466,-0.0257216098 11.5579,0.0701363399 C11.5557233,0.0721509498 11.5535956,0.0741889854 11.5514923,0.0762738724 L11.5509788,0.0762972981 Z" id="Path" fill="#FFC107"></path>
                <path d="M5.9970699,5.99999961 C5.92783345,6.00011673 5.86138504,5.97388129 5.81237414,5.92703227 L0.0732320424,0.430073734 C-0.0268685623,0.330824103 -0.023982691,0.172638414 0.079639655,0.0767619109 C0.180742978,-0.0167487169 0.341006663,-0.0167487169 0.442085529,0.0767619109 L5.99704545,5.39681858 L11.5514918,0.0762699963 C11.6515924,-0.0229796354 11.8167229,-0.0257203026 11.9203697,0.0701327757 C12.0239921,0.166009279 12.0268535,0.324171543 11.9267773,0.423444599 C11.9246741,0.42552938 11.9225464,0.427567312 11.9203697,0.42958182 L6.18125208,5.92654036 C6.13243683,5.97343622 6.06618408,5.99983564 5.9970699,5.99999961 Z" id="Path" fill="#000000"></path>
            </g>
        </g>
    </g>
</svg>