<?xml version="1.0" encoding="UTF-8"?>
<svg width="25px" height="25px" viewBox="0 0 25 25" version="1.1" xmlns="http://www.w3.org/2000/svg" xmlns:xlink="http://www.w3.org/1999/xlink">
    <!-- Generator: Sketch 52.4 (67378) - http://www.bohemiancoding.com/sketch -->
    <title>like</title>
    <desc>Created with Sketch.</desc>
    <g id="Boame-mobile-app" stroke="none" stroke-width="1" fill="none" fill-rule="evenodd" opacity="0.203613281">
        <g id="Watch-Video" transform="translate(-15.000000, -274.000000)" fill="#000000" fill-rule="nonzero">
            <g id="like" transform="translate(15.000000, 274.000000)">
                <path d="M4,19 C2.8972,19 2,19.8972 2,21 C2,22.1028 2.8972,23 4,23 C5.1028,23 6,22.1028 6,21 C6,19.8972 5.1028,19 4,19 Z M4,22.2 C3.3384,22.2 2.8,21.6616 2.8,21 C2.8,20.3384 3.3384,19.8 4,19.8 C4.6616,19.8 5.2,20.3384 5.2,21 C5.2,21.6616 4.6616,22.2 4,22.2 Z" id="Shape"></path>
                <path d="M25,15.0862069 C25,14.0107759 24.375,13.5077586 23.7659091,13.2616379 C24.2431818,12.8663793 24.5454545,12.2849138 24.5454545,11.637931 C24.5454545,10.449569 23.5259091,9.48275862 22.2727273,9.48275862 L15.7427273,9.48275862 L16.0740909,8.01293103 C16.5163636,6.05215517 16.2259091,3.825 16.1268182,3.18922414 C15.8913636,1.68362069 14.4872727,0 12.9604545,0 L12.8518182,0 C12.1263636,0 10.9090909,0.391810345 10.9090909,3.01724138 C10.9090909,6.47543103 9.99909091,8.05775862 9.23590909,8.77586207 C8.48727273,9.48017241 7.76727273,9.47241379 7.72727273,9.48275862 L7.27272727,9.48275862 L7.27272727,8.62068966 L0,8.62068966 L0,25 L7.27272727,25 L7.27272727,24.137931 L20,24.137931 C21.2531818,24.137931 22.2727273,23.1711207 22.2727273,21.9827586 C22.2727273,21.4810345 22.0909091,21.0189655 21.7868182,20.6521552 C22.8386364,20.4637931 23.6363636,19.5857759 23.6363636,18.5344828 C23.6363636,18.0327586 23.4545455,17.5706897 23.1504545,17.2038793 C24.2022727,17.0155172 25,16.1375 25,15.0862069 Z M0.909090909,24.137931 L0.909090909,9.48275862 L6.36363636,9.48275862 L6.36363636,24.137931 L0.909090909,24.137931 Z M22.7272727,16.3793103 L21.3636364,16.3793103 L17.7272727,16.3793103 C17.4763636,16.3793103 17.2727273,16.5719828 17.2727273,16.8103448 C17.2727273,17.0487069 17.4763636,17.2413793 17.7272727,17.2413793 L21.3636364,17.2413793 C22.1154545,17.2413793 22.7272727,17.8215517 22.7272727,18.5344828 C22.7272727,19.2474138 22.1154545,19.8275862 21.3636364,19.8275862 L20.4545455,19.8275862 L20,19.8275862 L16.8181818,19.8275862 C16.5672727,19.8275862 16.3636364,20.0202586 16.3636364,20.2586207 C16.3636364,20.4969828 16.5672727,20.6896552 16.8181818,20.6896552 L20,20.6896552 C20.7518182,20.6896552 21.3636364,21.2698276 21.3636364,21.9827586 C21.3636364,22.6956897 20.7518182,23.2758621 20,23.2758621 L7.27272727,23.2758621 L7.27272727,10.3448276 L7.71318182,10.3443966 C7.75727273,10.3525862 8.81318182,10.3659483 9.84136364,9.42025862 C11.1531818,8.21508621 11.8181818,6.06077586 11.8181818,3.01724138 C11.8181818,2.2125 11.9522727,0.862068966 12.8518182,0.862068966 L12.9604545,0.862068966 C13.9745455,0.862068966 15.055,2.2112069 15.2272727,3.31508621 C15.3213636,3.91508621 15.5954545,6.01336207 15.185,7.83232759 L14.6190909,10.3448276 L22.2727273,10.3448276 C23.0245455,10.3448276 23.6363636,10.925 23.6363636,11.637931 C23.6363636,12.3508621 23.0245455,12.9310345 22.2727273,12.9310345 L21.3636364,12.9310345 L20.9090909,12.9310345 L17.7272727,12.9310345 C17.4763636,12.9310345 17.2727273,13.1237069 17.2727273,13.362069 C17.2727273,13.600431 17.4763636,13.7931034 17.7272727,13.7931034 L20.9090909,13.7931034 C21.3104545,13.7931034 22.1931818,13.8103448 22.6609091,13.8762931 C23.8477273,14.0431034 24.0909091,14.4806034 24.0909091,15.0862069 C24.0909091,15.7991379 23.4790909,16.3793103 22.7272727,16.3793103 Z" id="Shape"></path>
            </g>
        </g>
    </g>
</svg>