<?xml version="1.0" encoding="UTF-8"?>
<svg width="16px" height="24px" viewBox="0 0 16 24" version="1.1" xmlns="http://www.w3.org/2000/svg" xmlns:xlink="http://www.w3.org/1999/xlink">
    <!-- Generator: Sketch 52.4 (67378) - http://www.bohemiancoding.com/sketch -->
    <title>microphone-bold</title>
    <desc>Created with Sketch.</desc>
    <g id="Boame-mobile-app" stroke="none" stroke-width="1" fill="none" fill-rule="evenodd">
        <g id="Chat-Screen" transform="translate(-272.000000, -752.000000)" fill="#FFFFFF">
            <g id="microphone-bold" transform="translate(272.000000, 752.000000)">
                <path d="M16,12.8163265 C16,12.3537415 15.6176471,12 15.1176471,12 C14.6176471,12 14.2352941,12.3537415 14.2352941,12.8163265 C14.2352941,16 11.4411765,18.585034 8,18.585034 C4.55882353,18.585034 1.76470588,16 1.76470588,12.8163265 C1.76470588,12.3537415 1.38235294,12 0.882352941,12 C0.382352941,12 0,12.3537415 0,12.8163265 C0,16.5986395 3.05882353,19.7823129 7.11764706,20.1904762 L7.11764706,22.3673469 L3.91176471,22.3673469 C3.41176471,22.3673469 3.02941176,22.7210884 3.02941176,23.1836735 C3.02941176,23.6462585 3.41176471,24 3.91176471,24 L12.0882353,24 C12.5882353,24 12.9705882,23.6462585 12.9705882,23.1836735 C12.9705882,22.7210884 12.5882353,22.3673469 12.0882353,22.3673469 L8.88235294,22.3673469 L8.88235294,20.1904762 C12.9411765,19.7823129 16,16.5986395 16,12.8163265 Z" id="Path"></path>
                <path d="M8,0 C5.24550898,0 3,2.1039604 3,4.68481848 L3,12.2871287 C3,14.8960396 5.24550898,16.9719472 8,17 C10.754491,17 13,14.8960396 13,12.3151815 L13,4.68481848 C13,2.1039604 10.754491,0 8,0 Z" id="Path"></path>
            </g>
        </g>
    </g>
</svg>