<?xml version="1.0" encoding="UTF-8"?>
<svg width="18px" height="31px" viewBox="0 0 18 31" version="1.1" xmlns="http://www.w3.org/2000/svg" xmlns:xlink="http://www.w3.org/1999/xlink">
    <!-- Generator: Sketch 52.4 (67378) - http://www.bohemiancoding.com/sketch -->
    <title>microphone-1</title>
    <desc>Created with Sketch.</desc>
    <g id="Boame-mobile-app" stroke="none" stroke-width="1" fill="none" fill-rule="evenodd">
        <g id="Submit-Uploaded-Audio-Recorded" transform="translate(-245.000000, -270.000000)" fill="#FF9001">
            <g id="microphone-1" transform="translate(245.000000, 270.000000)">
                <path d="M17.4375,15 C17.127,15 16.875,15.2384 16.875,15.5333333 L16.875,18.7333333 C16.875,22.8506667 13.3425,26.2 9,26.2 C4.6575,26.2 1.125,22.8506667 1.125,18.7333333 L1.125,15.5333333 C1.125,15.2384 0.873,15 0.5625,15 C0.252,15 0,15.2384 0,15.5333333 L0,18.7333333 C0,23.2586667 3.73725,26.9621333 8.4375,27.2394667 L8.4375,29.9333333 L5.625,29.9333333 C5.3145,29.9333333 5.0625,30.1717333 5.0625,30.4666667 C5.0625,30.7616 5.3145,31 5.625,31 L12.375,31 C12.6855,31 12.9375,30.7616 12.9375,30.4666667 C12.9375,30.1717333 12.6855,29.9333333 12.375,29.9333333 L9.5625,29.9333333 L9.5625,27.2394667 C14.26275,26.9621333 18,23.2581333 18,18.7333333 L18,15.5333333 C18,15.2384 17.748,15 17.4375,15 Z" id="Path"></path>
                <path d="M9,25 C12.3081818,25 15,22.3179348 15,19.0217391 L15,5.97826087 C15,2.68206522 12.3081818,0 9,0 C5.69181818,0 3,2.68206522 3,5.97826087 L3,19.0217391 C3,22.3179348 5.69181818,25 9,25 Z M5.43763636,2.62282609 C5.52272727,2.67771739 5.61818182,2.7173913 5.72727273,2.7173913 C6.02836364,2.7173913 6.27272727,2.47391304 6.27272727,2.17391304 C6.27272727,2.09347826 6.25309091,2.01847826 6.22145455,1.95 C7.01236364,1.40706522 7.96909091,1.08695652 9,1.08695652 C10.0309091,1.08695652 10.9876364,1.40706522 11.7785455,1.95 C11.7469091,2.01847826 11.7272727,2.09347826 11.7272727,2.17391304 C11.7272727,2.47391304 11.9716364,2.7173913 12.2727273,2.7173913 C12.3818182,2.7173913 12.4772727,2.67771739 12.5623636,2.62282609 C12.8841818,2.96141304 13.1569091,3.3451087 13.3718182,3.76413043 C13.3707273,3.77826087 13.3636364,3.79021739 13.3636364,3.80434783 C13.3636364,3.97771739 13.4503636,4.12554348 13.5774545,4.225 C13.7885455,4.7701087 13.9090909,5.35978261 13.9090909,5.97826087 L13.9090909,6.52173913 C13.608,6.52173913 13.3636364,6.76521739 13.3636364,7.06521739 C13.3636364,7.36521739 13.608,7.60869565 13.9090909,7.60869565 L13.9090909,9.7826087 C13.608,9.7826087 13.3636364,10.026087 13.3636364,10.326087 C13.3636364,10.626087 13.608,10.8695652 13.9090909,10.8695652 L13.9090909,13.0434783 C13.608,13.0434783 13.3636364,13.2869565 13.3636364,13.5869565 C13.3636364,13.8869565 13.608,14.1304348 13.9090909,14.1304348 L13.9090909,16.3043478 C13.608,16.3043478 13.3636364,16.5478261 13.3636364,16.8478261 C13.3636364,17.1478261 13.608,17.3913043 13.9090909,17.3913043 L13.9090909,19.0217391 C13.9090909,19.2081522 13.8965455,19.3907609 13.8758182,19.5717391 C13.5910909,19.5896739 13.3636364,19.8201087 13.3636364,20.1086957 C13.3636364,20.313587 13.482,20.4853261 13.65,20.5782609 C13.2321818,21.8130435 12.3338182,22.8266304 11.1758182,23.4 C11.1763636,23.3891304 11.1818182,23.3804348 11.1818182,23.3695652 C11.1818182,23.0695652 10.9374545,22.826087 10.6363636,22.826087 C10.3352727,22.826087 10.0909091,23.0695652 10.0909091,23.3695652 C10.0909091,23.5168478 10.1509091,23.6494565 10.2463636,23.7472826 C9.84763636,23.8516304 9.43145455,23.9130435 9,23.9130435 C8.56854545,23.9130435 8.15236364,23.8516304 7.75363636,23.7472826 C7.84909091,23.6494565 7.90909091,23.5168478 7.90909091,23.3695652 C7.90909091,23.0695652 7.66472727,22.826087 7.36363636,22.826087 C7.06254545,22.826087 6.81818182,23.0695652 6.81818182,23.3695652 C6.81818182,23.3804348 6.82363636,23.3891304 6.82418182,23.4 C5.66618182,22.826087 4.76727273,21.8130435 4.35,20.5782609 C4.518,20.4853261 4.63636364,20.313587 4.63636364,20.1086957 C4.63636364,19.8201087 4.40890909,19.5896739 4.12418182,19.5717391 C4.10345455,19.3907609 4.09090909,19.2081522 4.09090909,19.0217391 L4.09090909,17.3913043 C4.392,17.3913043 4.63636364,17.1478261 4.63636364,16.8478261 C4.63636364,16.5478261 4.392,16.3043478 4.09090909,16.3043478 L4.09090909,14.1304348 C4.392,14.1304348 4.63636364,13.8869565 4.63636364,13.5869565 C4.63636364,13.2869565 4.392,13.0434783 4.09090909,13.0434783 L4.09090909,10.8695652 C4.392,10.8695652 4.63636364,10.626087 4.63636364,10.326087 C4.63636364,10.026087 4.392,9.7826087 4.09090909,9.7826087 L4.09090909,7.60869565 C4.392,7.60869565 4.63636364,7.36521739 4.63636364,7.06521739 C4.63636364,6.76521739 4.392,6.52173913 4.09090909,6.52173913 L4.09090909,5.97826087 C4.09090909,5.35978261 4.21145455,4.7701087 4.42254545,4.225 C4.54963636,4.12554348 4.63636364,3.97771739 4.63636364,3.80434783 C4.63636364,3.79021739 4.62927273,3.77826087 4.62818182,3.76413043 C4.84309091,3.3451087 5.11581818,2.96141304 5.43763636,2.62282609 Z" id="Shape" fill-rule="nonzero"></path>
                <ellipse id="Oval" cx="9" cy="2.5" rx="1" ry="1"></ellipse>
                <ellipse id="Oval" cx="7" cy="3.5" rx="1" ry="1"></ellipse>
                <ellipse id="Oval" cx="7" cy="6.5" rx="1" ry="1"></ellipse>
                <ellipse id="Oval" cx="6" cy="4.5" rx="1" ry="1"></ellipse>
                <ellipse id="Oval" cx="9" cy="4.5" rx="1" ry="1"></ellipse>
                <ellipse id="Oval" cx="6" cy="8.5" rx="1" ry="1"></ellipse>
                <ellipse id="Oval" cx="9" cy="8.5" rx="1" ry="1"></ellipse>
                <ellipse id="Oval" cx="11" cy="3.5" rx="1" ry="1"></ellipse>
                <ellipse id="Oval" cx="11" cy="6.5" rx="1" ry="1"></ellipse>
                <ellipse id="Oval" cx="12" cy="4.5" rx="1" ry="1"></ellipse>
                <ellipse id="Oval" cx="12" cy="8.5" rx="1" ry="1"></ellipse>
                <ellipse id="Oval" cx="7" cy="10.5" rx="1" ry="1"></ellipse>
                <ellipse id="Oval" cx="7" cy="13.5" rx="1" ry="1"></ellipse>
                <ellipse id="Oval" cx="6" cy="11.5" rx="1" ry="1"></ellipse>
                <ellipse id="Oval" cx="9" cy="11.5" rx="1" ry="1"></ellipse>
                <ellipse id="Oval" cx="6" cy="15.5" rx="1" ry="1"></ellipse>
                <ellipse id="Oval" cx="9" cy="15.5" rx="1" ry="1"></ellipse>
                <ellipse id="Oval" cx="11" cy="10.5" rx="1" ry="1"></ellipse>
                <ellipse id="Oval" cx="11" cy="13.5" rx="1" ry="1"></ellipse>
                <ellipse id="Oval" cx="12" cy="11.5" rx="1" ry="1"></ellipse>
                <ellipse id="Oval" cx="12" cy="15.5" rx="1" ry="1"></ellipse>
                <ellipse id="Oval" cx="7" cy="16.5" rx="1" ry="1"></ellipse>
                <ellipse id="Oval" cx="7" cy="19.5" rx="1" ry="1"></ellipse>
                <ellipse id="Oval" cx="6" cy="18.5" rx="1" ry="1"></ellipse>
                <ellipse id="Oval" cx="9" cy="18.5" rx="1" ry="1"></ellipse>
                <ellipse id="Oval" cx="6" cy="21.5" rx="1" ry="1"></ellipse>
                <ellipse id="Oval" cx="9" cy="21.5" rx="1" ry="1"></ellipse>
                <ellipse id="Oval" cx="11" cy="16.5" rx="1" ry="1"></ellipse>
                <ellipse id="Oval" cx="11" cy="19.5" rx="1" ry="1"></ellipse>
                <ellipse id="Oval" cx="12" cy="18.5" rx="1" ry="1"></ellipse>
                <ellipse id="Oval" cx="12" cy="21.5" rx="1" ry="1"></ellipse>
            </g>
        </g>
    </g>
</svg>