<?xml version="1.0" encoding="UTF-8"?>
<svg width="57px" height="57px" viewBox="0 0 57 57" version="1.1" xmlns="http://www.w3.org/2000/svg" xmlns:xlink="http://www.w3.org/1999/xlink">
    <!-- Generator: Sketch 52.4 (67378) - http://www.bohemiancoding.com/sketch -->
    <title>compose</title>
    <desc>Created with Sketch.</desc>
    <g id="Boame-mobile-app" stroke="none" stroke-width="1" fill="none" fill-rule="evenodd">
        <g id="Report-a-case" transform="translate(-206.000000, -465.000000)" fill="#FFFFFF" fill-rule="nonzero">
            <g id="compose" transform="translate(206.000000, 465.000000)">
                <path d="M48.45,8.17285 L48.45,8.15385 L48.1555,7.8736 C48.0206,7.74535 47.88095,7.6247 47.7432,7.4993 C47.68145,7.4423 47.6197,7.38625 47.55795,7.33115 C47.27485,7.0756 46.987,6.8267 46.69535,6.5835 C46.6431,6.5398 46.5899,6.4961 46.53765,6.45335 C46.22985,6.20065 45.9173,5.95555 45.6,5.71615 C45.5601,5.68575 45.5202,5.6563 45.4803,5.62685 C45.1459,5.37795 44.8077,5.13665 44.46475,4.9039 C44.4372,4.8849 44.40965,4.86685 44.3821,4.84785 C44.0268,4.60845 43.66675,4.3776 43.30195,4.1553 C43.27915,4.14105 43.25635,4.1268 43.2326,4.1135 C42.864,3.89025 42.49065,3.67555 42.11255,3.4694 C42.0869,3.45515 42.0622,3.44185 42.03655,3.4276 C41.66225,3.22525 41.28415,3.03145 40.90225,2.8462 C40.8671,2.8291 40.831,2.812 40.79585,2.7949 C40.4244,2.6163 40.0501,2.4472 39.67105,2.2857 C39.6188,2.26385 39.5675,2.24105 39.51525,2.2192 C39.15425,2.06815 38.7904,1.9247 38.42275,1.7879 C38.40945,1.78315 38.3971,1.77745 38.3838,1.7727 C38.3705,1.767 38.35625,1.76225 38.34295,1.75655 C38.29545,1.7385 38.247,1.72235 38.1995,1.70525 C37.8537,1.57985 37.506,1.463 37.15545,1.3509 C37.05665,1.31955 36.95785,1.2863 36.8581,1.2559 C36.53035,1.1552 36.19975,1.0621 35.86725,0.97375 C35.74375,0.9405 35.62025,0.90535 35.4958,0.874 C35.1842,0.79515 34.8707,0.72485 34.5553,0.65645 C34.40995,0.6251 34.2646,0.5909 34.1183,0.56145 C33.81905,0.5016 33.5179,0.4503 33.21675,0.39995 C33.05335,0.3724 32.89185,0.342 32.7275,0.31825 C32.433,0.27455 32.13565,0.2394 31.83925,0.2052 C31.66825,0.18525 31.49915,0.1615 31.32815,0.1444 C31.0118,0.11305 30.69355,0.09215 30.3753,0.07125 C30.22235,0.06175 30.0713,0.04655 29.91835,0.03895 C29.44905,0.01235 28.97595,0 28.5,0 C28.02405,0 27.55095,0.01235 27.0788,0.0361 C26.92585,0.0437 26.7748,0.0589 26.62185,0.0684 C26.3036,0.0893 25.98535,0.1102 25.669,0.14155 C25.49705,0.15865 25.32795,0.1824 25.1579,0.20235 C24.86055,0.2375 24.56415,0.2717 24.26965,0.3154 C24.1053,0.3401 23.9438,0.3705 23.7804,0.3971 C23.47925,0.44745 23.1781,0.49875 22.87885,0.5586 C22.73255,0.58805 22.5872,0.62225 22.44185,0.6536 C22.1274,0.722 21.81295,0.7923 21.50135,0.87115 C21.3769,0.9025 21.2534,0.93765 21.1299,0.9709 C20.79835,1.05925 20.46775,1.15235 20.13905,1.25305 C20.0393,1.28345 19.94145,1.31575 19.8417,1.34805 C19.49115,1.4592 19.14345,1.577 18.79765,1.7024 C18.75015,1.7195 18.7017,1.7366 18.6542,1.7537 C18.63995,1.7594 18.62665,1.76415 18.61335,1.76985 C18.60005,1.7746 18.5877,1.7803 18.5744,1.78505 C18.2077,1.92185 17.8429,2.0653 17.4819,2.21635 C17.42965,2.2382 17.37835,2.261 17.3261,2.28285 C16.948,2.44435 16.57275,2.61345 16.2013,2.79205 C16.16615,2.80915 16.13005,2.82625 16.0949,2.84335 C15.713,3.0286 15.3349,3.2224 14.9606,3.42475 C14.93495,3.439 14.9093,3.4523 14.8846,3.46655 C14.5065,3.6727 14.1341,3.8874 13.76455,4.11065 C13.74175,4.1249 13.71895,4.13915 13.6952,4.15245 C13.3304,4.37475 12.97035,4.6056 12.61505,4.845 C12.5875,4.864 12.55995,4.88205 12.5324,4.90105 C12.18945,5.1338 11.8503,5.3751 11.51685,5.624 C11.47695,5.65345 11.43705,5.68385 11.39715,5.7133 C11.07985,5.95175 10.76825,6.1978 10.4595,6.4505 C10.4063,6.49325 10.35405,6.53695 10.3018,6.58065 C10.01015,6.82385 9.72325,7.07275 9.4392,7.3283 C9.37745,7.38435 9.3157,7.4404 9.25395,7.49645 C9.12,7.6247 8.9794,7.74535 8.8445,7.8736 L8.55,8.15385 L8.55,8.17285 C3.27845,13.3475 0,20.5466 0,28.5 C0,44.2149 12.7851,57 28.5,57 C44.2149,57 57,44.2149 57,28.5 C57,20.5466 53.72155,13.3475 48.45,8.17285 Z M20.9095,38.4199 C22.8817,36.33275 25.60725,35.15 28.5,35.15 C31.39275,35.15 34.1183,36.33275 36.0905,38.4199 L28.5,47.9294 L20.9095,38.4199 Z M37.27895,36.93125 C34.96475,34.5838 31.82975,33.25 28.5,33.25 C25.17025,33.25 22.03525,34.5838 19.72105,36.93125 L10.83475,25.79915 L19,19.266 L27.5633,26.1174 L27.5652,26.20955 L27.854,26.35015 L28.367,26.7292 L28.5133,26.65795 L28.671,26.73015 L29.1403,26.35395 L29.45,26.18485 L29.45,26.1079 L38,19.26695 L46.16525,25.79915 L37.27895,36.93125 Z M10.62195,8.8198 C10.6248,8.81695 10.62765,8.8141 10.63145,8.8122 C12.2018,7.3853 13.94315,6.14365 15.82035,5.12145 C15.83175,5.11575 15.84315,5.1091 15.85455,5.1034 C16.2127,4.9096 16.5756,4.7234 16.94325,4.5448 C16.97555,4.5296 17.0069,4.5144 17.0392,4.4992 C17.3717,4.3396 17.70895,4.1876 18.05,4.0413 L18.05,17.594 L10.45,23.67305 L10.45,8.98415 C10.50795,8.93 10.564,8.873 10.62195,8.8198 Z M20.74895,3.0552 C21.0425,2.9659 21.3389,2.8823 21.6372,2.8025 C21.76355,2.7683 21.89085,2.7341 22.01815,2.70275 C22.29745,2.63245 22.57865,2.5688 22.8608,2.508 C23.00615,2.47665 23.1515,2.4434 23.29875,2.4149 C23.5676,2.3617 23.83835,2.31515 24.11005,2.26955 C24.2687,2.24295 24.42735,2.21445 24.58695,2.1907 C24.8558,2.1508 25.1275,2.1185 25.39825,2.08715 C25.55975,2.06815 25.7203,2.0463 25.8818,2.03015 C26.17155,2.00165 26.46415,1.98265 26.75675,1.96365 C26.9002,1.95415 27.04175,1.94085 27.18615,1.93325 C27.30585,1.92755 27.4284,1.9285 27.55,1.92375 L27.55,23.674 L19.95,17.594 L19.95,3.3174 C20.11055,3.2623 20.27015,3.2053 20.4326,3.154 C20.5371,3.12075 20.64255,3.0875 20.74895,3.0552 Z M30.24325,1.96365 C30.53585,1.98265 30.82845,2.00165 31.1182,2.03015 C31.2797,2.0463 31.4412,2.06815 31.60175,2.08715 C31.87345,2.1185 32.1442,2.1508 32.41305,2.1907 C32.57265,2.21445 32.7313,2.24295 32.88995,2.26955 C33.16165,2.31515 33.4324,2.3617 33.70125,2.4149 C33.84755,2.44435 33.9929,2.47665 34.1392,2.508 C34.42135,2.5688 34.7035,2.6334 34.98185,2.70275 C35.10915,2.73505 35.2355,2.76925 35.3628,2.8025 C35.6611,2.8823 35.9575,2.9659 36.25105,3.0552 C36.3565,3.0875 36.46195,3.12075 36.5674,3.154 C36.72985,3.20625 36.88945,3.26325 37.05,3.3174 L37.05,17.594 L29.45,23.674 L29.45,1.92375 C29.5716,1.92755 29.69415,1.9266 29.8148,1.93325 C29.95825,1.9399 30.10075,1.95415 30.24325,1.96365 Z M40.0577,4.5448 C40.42535,4.7234 40.78825,4.90865 41.1464,5.1034 C41.1578,5.1091 41.1692,5.11575 41.1806,5.12145 C43.0578,6.14365 44.79915,7.3853 46.3695,8.8122 C46.37235,8.81505 46.3752,8.81695 46.379,8.8198 C46.436,8.873 46.49205,8.93 46.55,8.98415 L46.55,23.67305 L38.95,17.594 L38.95,4.0413 C39.29105,4.1876 39.6283,4.3396 39.96175,4.4992 C39.99405,4.51535 40.02635,4.5296 40.0577,4.5448 Z M28.5,55.1 C13.83295,55.1 1.9,43.16705 1.9,28.5 C1.9,21.77115 4.4156,15.62275 8.55,10.93355 L8.55,25.1237 L8.55,25.9825 L27.5614,49.799 L27.56615,49.98995 L27.5671,49.98995 L27.5671,50.0004 L27.8711,50.1429 L28.3423,50.5134 L28.3613,50.50485 L28.36795,50.5096 L28.51425,50.43835 L28.66435,50.50675 L28.67195,50.50105 L28.68905,50.50865 L29.13365,50.14005 L29.26475,50.06785 L29.45,49.9738 L29.45,49.9643 L29.45,49.78475 L48.45,25.9825 L48.45,25.1237 L48.45,10.93355 C52.5844,15.62275 55.1,21.77115 55.1,28.5 C55.1,43.16705 43.16705,55.1 28.5,55.1 Z" id="Shape"></path>
            </g>
        </g>
    </g>
</svg>