<?xml version="1.0" encoding="UTF-8"?>
<svg width="49px" height="49px" viewBox="0 0 49 49" version="1.1" xmlns="http://www.w3.org/2000/svg" xmlns:xlink="http://www.w3.org/1999/xlink">
    <!-- Generator: Sketch 52.4 (67378) - http://www.bohemiancoding.com/sketch -->
    <title>phone-2</title>
    <desc>Created with Sketch.</desc>
    <g id="Boame-mobile-app" stroke="none" stroke-width="1" fill="none" fill-rule="evenodd">
        <g id="Report-a-case" transform="translate(-59.000000, -272.000000)" fill="#FFFFFF">
            <g id="phone-2" transform="translate(59.000000, 272.000000)">
                <path d="M26.8949488,22 C27.1239984,22 27.353048,21.9123158 27.5275194,21.7378421 L41.2105499,8.05463158 L41.2105499,16.6315789 C41.2105499,17.1263684 41.6113867,17.5263158 42.1052749,17.5263158 C42.5991632,17.5263158 43,17.1263684 43,16.6315789 L43,5.89473684 C43,5.77842105 42.9758424,5.66210526 42.9311062,5.55294737 C42.8407389,5.33373684 42.6662675,5.15926316 42.4470599,5.06889474 C42.3280615,5.01968421 42.2028,5.00178947 42.075749,5.00536842 C42.065907,5.00536842 42.0578545,5 42.0471178,5 L31.310417,5 C30.8165287,5 30.4156919,5.39994737 30.4156919,5.89473684 C30.4156919,6.38952632 30.8165287,6.78947368 31.310417,6.78947368 L39.9445139,6.78947368 L26.2623781,20.4726842 C25.9125406,20.8225263 25.9125406,21.388 26.2623781,21.7378421 C26.4368495,21.9132105 26.6658991,22 26.8949488,22 Z" id="Path"></path>
                <path d="M48.4746108,37.1645731 C46.650604,33.7169645 40.3165406,29.9768315 40.037671,29.8133085 C38.878591,29.1519491 37.6786344,28.9430031 36.6576266,29.2264429 C35.8909624,29.4390227 35.2660039,29.9241408 34.8445203,30.6309232 C33.917983,31.7392454 32.7679867,33.0347104 32.4900255,33.2354803 C30.3390055,34.6926513 28.6294533,34.5209523 26.7727453,32.6640584 L16.3392085,22.229478 C14.481592,20.3716758 14.3108185,18.6610441 15.7660271,16.5143513 C15.9695019,16.2327285 17.2648374,15.0835256 18.3730487,14.1559872 C19.0797605,13.7344614 19.56483,13.1094404 19.7773886,12.3426995 C20.0598916,11.322498 19.8518749,10.1224214 19.1851314,8.95323236 C19.0279834,8.68432797 15.2873161,2.34872256 11.8409607,0.5254418 C10.0914402,-0.400279724 7.97675509,-0.0823184544 6.57604869,1.31761959 L4.26969749,3.62238456 C0.623500678,7.26894609 -0.6963608,11.4015341 0.344631115,15.9047742 C1.21303275,19.6585341 3.74375132,23.6530361 7.8677507,27.7765395 L21.2253302,41.1363636 C26.4593576,46.3709145 31.4517587,49 36.029943,49 C39.39182,49 42.5311464,47.5809843 45.3779777,44.7347767 L47.6825122,42.4300117 C49.0823102,41.0300737 49.4002397,38.9133601 48.4746108,37.1645731 Z M46.3980771,41.1445397 L44.0935427,43.4493047 C38.1273691,49.4151666 30.8649517,48.2050968 22.5106736,39.8508916 L9.15218575,26.491976 C5.27253787,22.61194 2.90532589,18.9117793 2.11504407,15.4959668 C1.21212438,11.5877686 2.33668633,8.1256246 5.55413254,4.90694809 L7.858667,2.60218312 C8.37371274,2.08799432 9.05135669,1.81908994 9.73899272,1.81908994 C10.1632015,1.81908994 10.5919521,1.92083754 10.9889097,2.13160044 C13.9801718,3.71504756 17.5800418,9.81172779 17.6109263,9.86351005 C18.0187844,10.5784687 18.1741157,11.324315 18.0260514,11.8584899 C17.9352144,12.1855358 17.7317395,12.434454 17.4047264,12.6179631 L17.2684709,12.712443 C16.4936314,13.3592671 14.6496404,14.9236365 14.2635832,15.4932414 C13.7076608,16.31449 13.3388627,17.1212031 13.1453799,17.9142894 C12.4995289,16.626092 11.9772162,15.1343994 11.8055343,13.4800924 C11.7537572,12.9822559 11.3104727,12.6306816 10.8081441,12.6697454 C10.309449,12.7224361 9.94610106,13.1684903 9.99787814,13.6681438 C10.6537212,19.9846715 15.5652773,24.0963649 15.7742024,24.268064 C15.7969116,24.2862332 15.8232544,24.2935009 15.846872,24.3089447 L25.4874018,33.9504389 C25.5282785,33.9913196 25.5709719,34.0276581 25.6118485,34.0676303 C25.6436415,34.1139618 25.664534,34.1657441 25.706319,34.2075333 C25.8780009,34.3774155 29.979291,38.3564736 36.2425016,39.0069315 C36.2742945,39.0096569 36.3060874,39.0114738 36.336972,39.0114738 C36.7966072,39.0114738 37.1908397,38.6635334 37.2398917,38.197493 C37.2916688,37.6978396 36.9292292,37.2517853 36.4296258,37.1990946 C34.5093318,37.0001417 32.8079549,36.436896 31.3899895,35.7837127 C32.0848925,35.5747667 32.7916043,35.2277347 33.5083081,34.7426167 C34.0787644,34.3556124 35.6429774,32.5123455 36.2888284,31.7374285 L36.3832989,31.6002509 C36.5667896,31.2741135 36.815683,31.0706183 37.1426961,30.9788637 C37.677726,30.8344185 38.4225893,30.9861314 39.1283928,31.3876711 C39.1892535,31.4240095 45.285324,35.0242395 46.8686128,38.0158008 C47.4190849,39.05508 47.230144,40.3123897 46.3980771,41.1445397 Z" id="Shape" fill-rule="nonzero"></path>
            </g>
        </g>
    </g>
</svg>