<?xml version="1.0" encoding="UTF-8"?>
<svg width="57px" height="41px" viewBox="0 0 57 41" version="1.1" xmlns="http://www.w3.org/2000/svg" xmlns:xlink="http://www.w3.org/1999/xlink">
    <!-- Generator: Sketch 52.4 (67378) - http://www.bohemiancoding.com/sketch -->
    <title>video-camera</title>
    <desc>Created with Sketch.</desc>
    <g id="Boame-mobile-app" stroke="none" stroke-width="1" fill="none" fill-rule="evenodd">
        <g id="Report-a-case" transform="translate(-206.000000, -274.000000)" fill="#000000" fill-rule="nonzero">
            <g id="video-camera" transform="translate(206.000000, 274.000000)">
                <path d="M55.263,8.429 C54.176,7.734 52.826,7.641 51.655,8.182 L44,11.715 L44,11.584 C44,9.761 42.517,8.277 40.693,8.277 L36,8.277 L36,3.277 C36,1.623 34.654,0.277 33,0.277 L1,0.277 C0.448,0.277 0,0.724 0,1.277 C0,1.83 0.448,2.277 1,2.277 L33,2.277 C33.551,2.277 34,2.725 34,3.277 L34,8.277 L3.307,8.277 C1.483,8.278 0,9.761 0,11.584 L0,36.971 C0,38.794 1.483,40.278 3.307,40.278 L40.693,40.278 C42.517,40.278 44,38.795 44,36.971 L44,36.84 L51.655,40.373 C52.161,40.606 52.7,40.722 53.237,40.722 C53.944,40.722 54.646,40.522 55.264,40.126 C56.351,39.431 57,38.245 57,36.954 L57,11.602 C57,10.311 56.351,9.125 55.263,8.429 Z M42,36.971 C42,37.692 41.414,38.278 40.693,38.278 L3.307,38.278 C2.586,38.278 2,37.692 2,36.971 L2,11.584 C2,10.863 2.586,10.277 3.307,10.277 L40.693,10.277 C41.414,10.277 42,10.863 42,11.584 L42,12.638 L42,35.917 L42,36.971 Z M55,36.954 C55,37.568 54.703,38.111 54.186,38.442 C53.669,38.773 53.053,38.818 52.494,38.557 L44,34.638 L44,13.917 L52.493,9.998 C53.051,9.738 53.668,9.782 54.185,10.113 C54.702,10.444 55,10.988 55,11.602 L55,36.954 Z" id="Shape"></path>
            </g>
        </g>
    </g>
</svg>