<?xml version="1.0" encoding="UTF-8"?>
<svg width="17px" height="17px" viewBox="0 0 17 17" version="1.1" xmlns="http://www.w3.org/2000/svg" xmlns:xlink="http://www.w3.org/1999/xlink">
    <!-- Generator: Sketch 52.4 (67378) - http://www.bohemiancoding.com/sketch -->
    <title>phone-bold</title>
    <desc>Created with Sketch.</desc>
    <g id="Boame-mobile-app" stroke="none" stroke-width="1" fill="none" fill-rule="evenodd">
        <g id="Chat-Screen" transform="translate(-283.000000, -22.000000)" fill="#FFFFFF">
            <g id="phone-bold" transform="translate(283.000000, 22.000000)">
                <path d="M16.554214,12.4762718 L14.1768216,10.1038738 C13.3277529,9.25658876 11.8843361,9.59553586 11.5447086,10.6969733 C11.289988,11.4595629 10.4409192,11.8832054 9.67675738,11.7137153 C7.97861993,11.2900728 5.68613437,9.08713176 5.26160001,7.30783323 C5.00687939,6.54524362 5.51632062,5.69795861 6.28048248,5.44380621 C7.38427182,5.1048922 7.72389931,3.66450768 6.87483058,2.81722267 L4.49743816,0.444824632 C3.81818318,-0.148274877 2.79930071,-0.148274877 2.2049526,0.444824632 L0.591722022,2.05466616 C-1.02150855,3.74923618 0.761535767,8.23984675 4.75215877,12.2220863 C8.74278178,16.2043259 13.242846,18.068386 14.9409835,16.3737829 L16.554214,14.7639413 C17.1485953,14.0861133 17.1485953,13.0693713 16.554214,12.4762718 Z" id="Path"></path>
            </g>
        </g>
    </g>
</svg>