<?xml version="1.0" encoding="UTF-8"?>
<svg width="20px" height="21px" viewBox="0 0 20 21" version="1.1" xmlns="http://www.w3.org/2000/svg" xmlns:xlink="http://www.w3.org/1999/xlink">
    <!-- Generator: Sketch 52.4 (67378) - http://www.bohemiancoding.com/sketch -->
    <title>power</title>
    <desc>Created with Sketch.</desc>
    <g id="Boame-mobile-app" stroke="none" stroke-width="1" fill="none" fill-rule="evenodd">
        <g id="Login-to-continue" transform="translate(-146.000000, -701.000000)" fill="#000000">
            <g id="power" transform="translate(146.000000, 701.000000)">
                <path d="M12.8115385,1.92794307 C12.6069231,1.8699312 12.3942308,1.98408359 12.3346154,2.18244675 C12.275,2.38080992 12.3919231,2.58852984 12.5961538,2.64654171 C16.5023077,3.75812397 19.2307692,7.30358485 19.2307692,11.2689768 C19.2307692,16.2216933 15.0896154,20.2514598 10,20.2514598 C4.91038462,20.2514598 0.769230769,16.2216933 0.769230769,11.2689768 C0.769230769,7.29871934 3.50192308,3.75176138 7.415,2.64317327 C7.61884615,2.58553568 7.73615385,2.37781576 7.67692308,2.17945259 C7.61807692,1.98108943 7.40461538,1.86543996 7.20038462,1.92457464 C2.96076923,3.12523319 0,6.96786455 0,11.2689768 C0,16.6348876 4.48576923,21 10,21 C15.5142308,21 20,16.6348876 20,11.2689768 C20,6.97310433 17.0438462,3.13234433 12.8115385,1.92794307 Z" id="Path"></path>
                <path d="M10.5,10.5 C10.7765,10.5 11,10.3261667 11,10.1111111 L11,0.388888889 C11,0.173833333 10.7765,0 10.5,0 C10.2235,0 10,0.173833333 10,0.388888889 L10,10.1111111 C10,10.3261667 10.2235,10.5 10.5,10.5 Z" id="Path"></path>
            </g>
        </g>
    </g>
</svg>