<?xml version="1.0" encoding="UTF-8"?>
<svg width="25px" height="25px" viewBox="0 0 25 25" version="1.1" xmlns="http://www.w3.org/2000/svg" xmlns:xlink="http://www.w3.org/1999/xlink">
    <!-- Generator: Sketch 52.4 (67378) - http://www.bohemiancoding.com/sketch -->
    <title>share-1</title>
    <desc>Created with Sketch.</desc>
    <g id="Boame-mobile-app" stroke="none" stroke-width="1" fill="none" fill-rule="evenodd" opacity="0.2">
        <g id="Watch-Video" transform="translate(-110.000000, -275.000000)" fill="#000000" fill-rule="nonzero">
            <g id="share-1" transform="translate(110.000000, 275.000000)">
                <path d="M17.2405956,17.7680312 C17.0024181,17.9900839 16.7974219,18.2341724 16.6201524,18.4922451 L8.76574971,14.0473769 C8.97347321,13.5625901 9.09119834,13.0354267 9.09119834,12.4824138 C9.09119834,11.9294008 8.97347321,11.4022375 8.76620425,10.9174506 L16.622425,6.5064836 C17.4292286,7.68793966 18.8437483,8.47529452 20.4546281,8.47529452 C22.9609462,8.47529452 25,6.57428596 25,4.23764726 C25,1.90100856 22.9609462,0 20.4546281,0 C17.94831,0 15.9092562,1.90100856 15.9092562,4.23764726 C15.9092562,4.76989575 16.0197087,5.2775659 16.2124325,5.74709721 L8.34575735,10.1639969 C7.53304485,9.00966184 6.13397938,8.24476651 4.5453719,8.24476651 C2.03905384,8.24476651 0,10.1457751 0,12.4824138 C0,14.8190525 2.03905384,16.720061 4.5453719,16.720061 C6.13397938,16.720061 7.53259032,15.9551657 8.34530281,14.8008306 L16.2106144,19.2516315 C16.0151634,19.7287906 15.9088017,20.2385795 15.9088017,20.7644716 C15.9088017,21.8963471 16.3815203,22.9608441 17.2401411,23.7609119 C18.1260341,24.5868294 19.2901038,25 20.4541736,25 C21.6182433,25 22.782313,24.5868294 23.668206,23.7609119 C24.5268268,22.9604204 24.9995455,21.8963471 24.9995455,20.7644716 C24.9995455,19.632596 24.5268268,18.568099 23.668206,17.7680312 C21.8959655,16.1153488 19.0128361,16.1153488 17.2405956,17.7680312 Z M20.4546281,0.847529452 C22.4595916,0.847529452 24.0909256,2.36842105 24.0909256,4.23764726 C24.0909256,6.10687346 22.4595916,7.62776506 20.4546281,7.62776506 C18.4496646,7.62776506 16.8183306,6.10687346 16.8183306,4.23764726 C16.8183306,2.36842105 18.44921,0.847529452 20.4546281,0.847529452 Z M4.54582644,15.8725316 C2.54086289,15.8725316 0.909528918,14.35164 0.909528918,12.4824138 C0.909528918,10.6131876 2.54086289,9.09229596 4.54582644,9.09229596 C6.55078999,9.09229596 8.18212396,10.6131876 8.18212396,12.4824138 C8.18212396,14.35164 6.55078999,15.8725316 4.54582644,15.8725316 Z M23.0254904,23.1617086 C21.6077889,24.4834308 19.3010127,24.4834308 17.8833112,23.1617086 C17.1965055,22.5214001 16.8183306,21.669633 16.8183306,20.7644716 C16.8183306,19.8593101 17.1965055,19.007543 17.8833112,18.3672345 C18.5923892,17.7061615 19.5232814,17.3760488 20.4546281,17.3760488 C21.3859748,17.3760488 22.316867,17.7061615 23.025945,18.3672345 C23.7127507,19.007543 24.0909256,19.8593101 24.0909256,20.7644716 C24.0909256,21.669633 23.7127507,22.5214001 23.0254904,23.1617086 Z" id="Shape"></path>
            </g>
        </g>
    </g>
</svg>