<?xml version="1.0" encoding="UTF-8"?>
<svg width="18px" height="21px" viewBox="0 0 18 21" version="1.1" xmlns="http://www.w3.org/2000/svg" xmlns:xlink="http://www.w3.org/1999/xlink">
    <!-- Generator: Sketch 52.4 (67378) - http://www.bohemiancoding.com/sketch -->
    <title>user</title>
    <desc>Created with Sketch.</desc>
    <g id="Boame-mobile-app" stroke="none" stroke-width="1" fill="none" fill-rule="evenodd">
        <g id="Online-counselors" transform="translate(-167.000000, -706.000000)" fill="#000000" fill-rule="nonzero">
            <g id="user" transform="translate(167.000000, 706.000000)">
                <path d="M16.0489565,15.01115 L12.3108261,13.33955 C11.9582609,13.1817 11.7391304,12.8646 11.7391304,12.5118 L11.7391304,11.32845 C11.8287391,11.23045 11.9230435,11.1188 12.0204783,10.9956 C12.5053043,10.3831 12.8938696,9.7013 13.1763913,8.96595 C13.7285217,8.7395 14.0869565,8.25125 14.0869565,7.7 L14.0869565,6.3 C14.0869565,5.96295 13.946087,5.6364 13.6956522,5.38125 L13.6956522,3.5196 C13.7175652,3.3271 13.8036522,2.1812 12.8770435,1.23585 C12.0733043,0.4158 10.769087,0 9,0 C7.23091304,0 5.92669565,0.4158 5.12295652,1.2355 C4.19634783,2.18085 4.28243478,3.3271 4.30434783,3.5196 L4.30434783,5.38125 C4.05391304,5.6364 3.91304348,5.96295 3.91304348,6.3 L3.91304348,7.7 C3.91304348,8.12595 4.12943478,8.5232 4.49882609,8.78815 C4.85726087,10.0576 5.6073913,11.01415 5.86956522,11.3211 L5.86956522,12.47925 C5.86956522,12.81805 5.66295652,13.12885 5.33073913,13.29125 L1.83991304,14.99435 C0.70473913,15.5484 0,16.6103 0,17.7667 L0,18.9 C0,20.5611 5.88717391,21 9,21 C12.1128261,21 18,20.5611 18,18.9 L18,17.83495 C18,16.63165 17.2522174,15.54945 16.0489565,15.01115 Z M17.2173913,18.9 C17.2173913,19.37495 14.3170435,20.3 9,20.3 C3.68295652,20.3 0.782608696,19.37495 0.782608696,18.9 L0.782608696,17.7667 C0.782608696,16.86685 1.33121739,16.0398 2.2143913,15.6093 L5.70521739,13.9062 C6.28943478,13.62095 6.65217391,13.0739 6.65217391,12.47925 L6.65217391,11.0726 L6.561,10.9753 C6.5516087,10.96515 5.59252174,9.9274 5.22665217,8.50255 L5.19104348,8.36395 L5.0576087,8.28695 C4.83104348,8.15605 4.69565217,7.9366 4.69565217,7.7 L4.69565217,6.3 C4.69565217,6.10365 4.78878261,5.9206 4.95782609,5.78375 L5.08695652,5.6798 L5.08695652,3.5 L5.08343478,3.45415 C5.08226087,3.4447 4.94921739,2.4745 5.71147826,1.6968 C6.35986957,1.0353 7.46647826,0.7 9,0.7 C10.5280435,0.7 11.6323043,1.03285 12.2814783,1.6898 C13.0433478,2.46015 12.9173478,3.44575 12.9165652,3.45415 L12.9130435,5.6798 L13.0421739,5.7841 C13.2112174,5.9206 13.3043478,6.10365 13.3043478,6.3 L13.3043478,7.7 C13.3043478,8.00555 13.0805217,8.27295 12.747913,8.36465 L12.5530435,8.4182 L12.4904348,8.59145 C12.2286522,9.3198 11.8557391,9.9925 11.3814783,10.591 C11.2652609,10.73835 11.1521739,10.8689 11.0539565,10.96865 L10.9565217,11.06805 L10.9565217,12.5118 C10.9565217,13.1313 11.3411739,13.68815 11.9606087,13.96535 L15.6987391,15.63695 C16.6355217,16.0559 17.2173913,16.898 17.2173913,17.83495 L17.2173913,18.9 Z" id="Shape"></path>
            </g>
        </g>
    </g>
</svg>