<?xml version="1.0" encoding="UTF-8"?>
<svg width="24px" height="19px" viewBox="0 0 24 19" version="1.1" xmlns="http://www.w3.org/2000/svg" xmlns:xlink="http://www.w3.org/1999/xlink">
    <!-- Generator: Sketch 52.4 (67378) - http://www.bohemiancoding.com/sketch -->
    <title>video-player</title>
    <desc>Created with Sketch.</desc>
    <g id="Boame-mobile-app" stroke="none" stroke-width="1" fill="none" fill-rule="evenodd">
        <g id="Submit-Uploaded-Video" transform="translate(-242.000000, -276.000000)" fill="#FF9001" fill-rule="nonzero">
            <g id="video-player" transform="translate(242.000000, 276.000000)">
                <path d="M14.8219231,9.68345563 L10.5911538,7.05842052 C10.4726923,6.98529454 10.3226923,6.98041948 10.1992308,7.04604535 C10.0765385,7.11204624 10,7.23804792 10,7.37492475 L10,12.624995 C10,12.7618718 10.0765385,12.8878735 10.1996154,12.9538744 C10.2573077,12.9846248 10.3207692,13 10.3846154,13 C10.4565385,13 10.5284615,12.9801247 10.5911538,12.9414992 L14.8219231,10.3164641 C14.9326923,10.2474632 15,10.1282116 15,9.99995987 C15,9.87170815 14.9326923,9.75245656 14.8219231,9.68345563 Z M10.7692308,11.9421108 L10.7692308,8.05780889 L13.8988462,9.99995987 L10.7692308,11.9421108 Z" id="Shape"></path>
                <path d="M23.5862069,0 L19.4482759,0 L4.55172414,0 L0.413793103,0 C0.18537931,0 0,0.184630435 0,0.413043478 L0,4.95652174 L0,9.5 L0,14.0434783 L0,18.5869565 C0,18.8153696 0.18537931,19 0.413793103,19 L4.55172414,19 L19.4482759,19 L23.5862069,19 C23.8146207,19 24,18.8153696 24,18.5869565 L24,14.0434783 L24,9.5 L24,4.95652174 L24,0.413043478 C24,0.184630435 23.8146207,0 23.5862069,0 Z M4.13793103,9.08695652 L0.827586207,9.08695652 L0.827586207,5.36956522 L4.13793103,5.36956522 L4.13793103,9.08695652 Z M0.827586207,9.91304348 L4.13793103,9.91304348 L4.13793103,13.6304348 L0.827586207,13.6304348 L0.827586207,9.91304348 Z M4.96551724,14.0434783 L4.96551724,9.5 L4.96551724,4.95652174 L4.96551724,0.826086957 L19.0344828,0.826086957 L19.0344828,4.95652174 L19.0344828,9.5 L19.0344828,14.0434783 L19.0344828,18.173913 L4.96551724,18.173913 L4.96551724,14.0434783 Z M23.1724138,9.08695652 L19.862069,9.08695652 L19.862069,5.36956522 L23.1724138,5.36956522 L23.1724138,9.08695652 Z M19.862069,9.91304348 L23.1724138,9.91304348 L23.1724138,13.6304348 L19.862069,13.6304348 L19.862069,9.91304348 Z M23.1724138,0.826086957 L23.1724138,4.54347826 L19.862069,4.54347826 L19.862069,0.826086957 L23.1724138,0.826086957 Z M0.827586207,0.826086957 L4.13793103,0.826086957 L4.13793103,4.54347826 L0.827586207,4.54347826 L0.827586207,0.826086957 Z M0.827586207,18.173913 L0.827586207,14.4565217 L4.13793103,14.4565217 L4.13793103,18.173913 L0.827586207,18.173913 Z M23.1724138,18.173913 L19.862069,18.173913 L19.862069,14.4565217 L23.1724138,14.4565217 L23.1724138,18.173913 Z" id="Shape"></path>
            </g>
        </g>
    </g>
</svg>