<?xml version="1.0" encoding="UTF-8"?>
<svg width="21px" height="19px" viewBox="0 0 21 19" version="1.1" xmlns="http://www.w3.org/2000/svg" xmlns:xlink="http://www.w3.org/1999/xlink">
    <!-- Generator: Sketch 52.4 (67378) - http://www.bohemiancoding.com/sketch -->
    <title>video-camera-1</title>
    <desc>Created with Sketch.</desc>
    <g id="Boame-mobile-app" stroke="none" stroke-width="1" fill="none" fill-rule="evenodd">
        <g id="Submit-Recorded-Video" transform="translate(-246.000000, -277.000000)" fill="#FF9001" fill-rule="nonzero">
            <g id="Group" transform="translate(228.000000, 258.000000)">
                <g id="video-camera-1" transform="translate(18.000000, 19.000000)">
                    <path d="M20.3854737,1.02483673 C20.0096842,0.855 19.5911579,0.933714286 19.2978947,1.22763265 L15.1052632,5.30022449 L15.1052632,1.91706122 C15.1052632,0.860040816 14.2881053,0 13.2837895,0 L1.82147368,0 C0.817157895,0 0,0.860040816 0,1.91706122 L0,10.9381837 C0,11.9626327 0.791736842,12.7959184 1.76510526,12.7959184 L7.20852632,12.7959184 L4.71726316,18.449 C4.63178947,18.6432653 4.71173684,18.8739796 4.89631579,18.9639388 C4.94642105,18.9887551 4.99910526,19 5.05105263,19 C5.18994737,19 5.32294737,18.9166327 5.38557895,18.7754898 L7.78547368,13.3298571 L10.1853684,18.7754898 C10.2476316,18.9166327 10.3806316,19 10.5195263,19 C10.5714737,19 10.6241579,18.9887551 10.6742632,18.9639388 C10.8588421,18.8739796 10.9391579,18.6432653 10.8533158,18.449 L8.36242105,12.7959184 L13.1994211,12.7959184 C14.2501579,12.7959184 15.1052632,11.8959388 15.1052632,10.7896735 L15.1052632,7.68685714 L19.2757895,11.8819796 C19.4714211,12.087102 19.7226842,12.1952857 19.9820526,12.1952857 C20.1121053,12.1952857 20.2436316,12.1685306 20.3714737,12.1130816 C20.7535263,11.9475102 21,11.5585918 21,11.1219796 L21,2.00973469 C21,1.5735102 20.7645789,1.19583673 20.3854737,1.02483673 Z M14.3684211,10.7896735 C14.3684211,11.4682449 13.8441579,12.0204082 13.1994211,12.0204082 L7.79910526,12.0204082 C7.79836842,12.0204082 7.79763158,12.0204082 7.79689474,12.0204082 L7.77442105,12.0204082 C7.77331579,12.0204082 7.77184211,12.0204082 7.77073684,12.0204082 L1.76510526,12.0204082 C1.19810526,12.0204082 0.736842105,11.5349388 0.736842105,10.9381837 L0.736842105,1.91706122 C0.736842105,1.28773469 1.22352632,0.775510204 1.82147368,0.775510204 L13.2837895,0.775510204 C13.8817368,0.775510204 14.3684211,1.28773469 14.3684211,1.91706122 L14.3684211,10.7896735 Z M20.2631579,11.1219796 C20.2631579,11.3069388 20.1316316,11.3782857 20.0911053,11.3957347 C20.041,11.4178367 19.9113158,11.4546735 19.7952632,11.3317551 L15.1866842,6.69653061 C15.1328947,6.63953061 15.1041579,6.56314286 15.1052632,6.48210204 C15.1063684,6.40106122 15.1373158,6.32622449 15.1892632,6.27426531 L19.8018947,1.79336735 C19.8641579,1.73093878 19.9293684,1.71271429 19.9842632,1.71271429 C20.0321579,1.71271429 20.0723158,1.72706122 20.0951579,1.73714286 C20.1342105,1.75497959 20.2631579,1.8274898 20.2631579,2.00973469 L20.2631579,11.1219796 Z" id="Shape"></path>
                    <path d="M6.33456545,5.73961538 C6.52956197,5.37384615 6.64277424,4.95115385 6.64277424,4.5 C6.64277424,3.12153846 5.60136426,2 4.32138712,2 C3.04140997,2 2,3.12153846 2,4.5 C2,5.87846154 3.04140997,7 4.32138712,7 C4.92387636,7 5.47172372,6.74961538 5.88457349,6.34269231 L6.39027875,6.88730769 C6.45992036,6.96230769 6.5513473,7 6.64277424,7 C6.73420117,7 6.82562811,6.96230769 6.89526973,6.88730769 C7.03491009,6.73692308 7.03491009,6.49384615 6.89526973,6.34346154 L6.33456545,5.73961538 Z M4.32138712,6.23076923 C3.43533151,6.23076923 2.71427296,5.45423077 2.71427296,4.5 C2.71427296,3.54576923 3.43533151,2.76923077 4.32138712,2.76923077 C5.20744272,2.76923077 5.92850128,3.54576923 5.92850128,4.5 C5.92850128,4.73653846 5.88385922,4.96192308 5.80350351,5.16769231 L5.10958733,4.42038462 C4.96994697,4.27 4.74423671,4.27 4.60459635,4.42038462 C4.46495598,4.57076923 4.46495598,4.81384615 4.60459635,4.96423077 L5.37636828,5.79538462 C5.09315905,6.06307692 4.72673702,6.23076923 4.32138712,6.23076923 Z" id="Shape"></path>
                </g>
            </g>
        </g>
    </g>
</svg>