<?xml version="1.0" encoding="UTF-8"?>
<svg width="24px" height="19px" viewBox="0 0 24 19" version="1.1" xmlns="http://www.w3.org/2000/svg" xmlns:xlink="http://www.w3.org/1999/xlink">
    <!-- Generator: Sketch 52.4 (67378) - http://www.bohemiancoding.com/sketch -->
    <title>windows</title>
    <desc>Created with Sketch.</desc>
    <g id="Boame-mobile-app" stroke="none" stroke-width="1" fill="none" fill-rule="evenodd">
        <g id="Online-counselors" transform="translate(-238.000000, -707.000000)" fill="#000000" fill-rule="nonzero">
            <g id="windows" transform="translate(238.000000, 707.000000)">
                <path d="M24,0 L5.6,0 L5.6,2.77083333 L2.8,2.77083333 L2.8,5.54166667 L0,5.54166667 L0,19 L18.4,19 L18.4,16.2291667 L21.2,16.2291667 L21.2,13.4583333 L24,13.4583333 L24,0 Z M17.6,18.2083333 L0.8,18.2083333 L0.8,6.33333333 L2.8,6.33333333 L2.8,16.2291667 L17.6,16.2291667 L17.6,18.2083333 Z M20.4,15.4375 L18.4,15.4375 L3.6,15.4375 L3.6,5.54166667 L3.6,3.5625 L5.6,3.5625 L5.6,13.4583333 L20.4,13.4583333 L20.4,15.4375 Z M23.2,12.6666667 L21.2,12.6666667 L6.4,12.6666667 L6.4,2.77083333 L6.4,0.791666667 L23.2,0.791666667 L23.2,12.6666667 Z" id="Shape"></path>
            </g>
        </g>
    </g>
</svg>