<?xml version="1.0" encoding="UTF-8"?>
<svg width="24px" height="19px" viewBox="0 0 24 19" version="1.1" xmlns="http://www.w3.org/2000/svg" xmlns:xlink="http://www.w3.org/1999/xlink">
    <!-- Generator: Sketch 52.4 (67378) - http://www.bohemiancoding.com/sketch -->
    <title>windows-4</title>
    <desc>Created with Sketch.</desc>
    <g id="Boame-mobile-app" stroke="none" stroke-width="1" fill="none" fill-rule="evenodd">
        <g id="Online-counselors" transform="translate(-235.000000, -707.000000)" fill="#000000">
            <g id="windows-4" transform="translate(235.000000, 707.000000)">
                <path d="M21.2,5.54166667 L21.2,2.77083333 L18.4,2.77083333 L18.4,0 L0,0 L0,13.4583333 L2.8,13.4583333 L2.8,16.2291667 L5.6,16.2291667 L5.6,19 L24,19 L24,5.54166667 L21.2,5.54166667 Z M0.8,12.6666667 L0.8,0.791666667 L17.6,0.791666667 L17.6,2.77083333 L2.8,2.77083333 L2.8,12.6666667 L0.8,12.6666667 Z M3.6,15.4375 L3.6,13.4583333 L3.6,11.0833333 L3.6,8.70833333 L3.6,6.33333333 L3.6,3.95833333 L3.6,3.5625 L4,3.5625 L6.4,3.5625 L8.8,3.5625 L11.2,3.5625 L13.6,3.5625 L16,3.5625 L18.4,3.5625 L20.4,3.5625 L20.4,5.54166667 L19.6,5.54166667 L17.2,5.54166667 L14.8,5.54166667 L12.4,5.54166667 L10,5.54166667 L7.6,5.54166667 L5.6,5.54166667 L5.6,7.52083333 L5.6,9.89583333 L5.6,12.2708333 L5.6,14.6458333 L5.6,15.4375 L3.6,15.4375 Z M23.2,18.2083333 L6.4,18.2083333 L6.4,16.2291667 L6.4,6.33333333 L21.2,6.33333333 L23.2,6.33333333 L23.2,18.2083333 Z" id="Shape" fill-rule="nonzero"></path>
                <circle id="Oval" cx="13.5" cy="3.5" r="1"></circle>
                <circle id="Oval" cx="14.5" cy="5.5" r="1"></circle>
                <circle id="Oval" cx="16.5" cy="3.5" r="1"></circle>
                <circle id="Oval" cx="18.5" cy="3.5" r="1"></circle>
                <circle id="Oval" cx="17.5" cy="5.5" r="1"></circle>
                <circle id="Oval" cx="19.5" cy="5.5" r="1"></circle>
                <circle id="Oval" cx="11.5" cy="3.5" r="1"></circle>
                <circle id="Oval" cx="12.5" cy="5.5" r="1"></circle>
                <circle id="Oval" cx="4.5" cy="3.5" r="1"></circle>
                <circle id="Oval" cx="4.5" cy="6.5" r="1"></circle>
                <circle id="Oval" cx="5.5" cy="5.5" r="1"></circle>
                <circle id="Oval" cx="5.5" cy="7.5" r="1"></circle>
                <circle id="Oval" cx="6.5" cy="3.5" r="1"></circle>
                <circle id="Oval" cx="8.5" cy="3.5" r="1"></circle>
                <circle id="Oval" cx="7.5" cy="5.5" r="1"></circle>
                <circle id="Oval" cx="10.5" cy="5.5" r="1"></circle>
                <circle id="Oval" cx="4.5" cy="8.5" r="1"></circle>
                <circle id="Oval" cx="4.5" cy="11.5" r="1"></circle>
                <circle id="Oval" cx="5.5" cy="9.5" r="1"></circle>
                <circle id="Oval" cx="5.5" cy="12.5" r="1"></circle>
                <circle id="Oval" cx="4.5" cy="13.5" r="1"></circle>
                <circle id="Oval" cx="5.5" cy="14.5" r="1"></circle>
            </g>
        </g>
    </g>
</svg>