<?xml version="1.0" encoding="UTF-8"?>
<svg width="21px" height="20px" viewBox="0 0 21 20" version="1.1" xmlns="http://www.w3.org/2000/svg" xmlns:xlink="http://www.w3.org/1999/xlink">
    <!-- Generator: Sketch 52.4 (67378) - http://www.bohemiancoding.com/sketch -->
    <title>alarm-1</title>
    <desc>Created with Sketch.</desc>
    <g id="Boame-mobile-app" stroke="none" stroke-width="1" fill="none" fill-rule="evenodd">
        <g id="Report-a-case" transform="translate(-146.000000, -752.000000)" fill="#000000">
            <g id="alarm-1" transform="translate(146.000000, 752.000000)">
                <path d="M16.4269563,10.5452628 L16.4269563,7.27477682 C16.4420782,4.78136761 14.8205235,3.1275795 13.4272032,2.46904602 C13.0280567,2.28032218 12.6166017,2.13487028 12.198465,2.02687224 L12.198465,1.81814876 C12.198465,0.815621534 11.4096671,0 10.4401103,0 C9.47055353,0 8.68175562,0.815621534 8.68175562,1.81814876 L8.68175562,2.05850803 C8.30511605,2.16359703 7.93480655,2.30068544 7.57539885,2.47231869 C6.03578349,3.20612353 4.47577121,4.97481864 4.46170438,7.27259504 L4.46170438,10.5452628 C4.46170438,12.8681297 3.66833474,14.8611843 2.10375074,16.4691551 C2.01055794,16.5651534 1.97679753,16.7066053 2.01618468,16.8364212 C2.05557182,16.966237 2.16212812,17.0622352 2.29189469,17.0855075 L5.62960356,17.6814967 C6.25135777,17.7924038 6.82387806,17.8833112 7.36861634,17.9582189 C7.98228213,19.2018327 9.18745843,20 10.5041144,20 C11.8211221,20 13.02665,19.2014691 13.6399642,17.9571281 C14.1825924,17.882584 14.7522993,17.7920401 15.3705368,17.6814967 L18.707894,17.0855075 C18.8376606,17.0625989 18.9438652,16.966237 18.9836041,16.8364212 C19.0233429,16.706969 18.9895825,16.5651534 18.896038,16.4691551 C17.2579548,14.7851857 16.4269563,12.7921311 16.4269563,10.5452628 Z M9.3850975,1.81814876 C9.3850975,1.21670515 9.85844658,0.727259504 10.4401103,0.727259504 C11.021774,0.727259504 11.4951231,1.21670515 11.4951231,1.81814876 L11.4951231,1.88432938 C10.7942429,1.78033127 10.0831643,1.78469482 9.3850975,1.90141997 L9.3850975,1.81814876 Z M10.5044661,19.2723769 C9.61403528,19.2723769 8.78198184,18.8149306 8.24779368,18.0669442 C9.03377823,18.1505791 9.7673638,18.1927601 10.5005977,18.1927601 C11.236645,18.1927601 11.9726923,18.1505791 12.7618418,18.0658533 C12.227302,18.814567 11.3948969,19.2723769 10.5044661,19.2723769 Z M15.2513204,16.9644188 C14.5764639,17.0847803 13.9578747,17.1825967 13.3733976,17.2596862 C13.3726943,17.2596862 13.3719909,17.2596862 13.3709359,17.2596862 C13.1131611,17.2935038 12.8627714,17.3229578 12.6176567,17.3484118 C12.6155467,17.3484118 12.6137884,17.3487755 12.6116783,17.3487755 C12.3869606,17.3720478 12.1675179,17.3909565 11.9501853,17.4069562 C11.9093915,17.4098653 11.8685977,17.4127743 11.8281555,17.4153197 C11.6400115,17.4280468 11.4539776,17.4382284 11.2689987,17.445501 C11.2313699,17.4469555 11.1933895,17.4491373 11.1557607,17.4502282 C10.718282,17.4655006 10.2867818,17.4655006 9.8496548,17.4505918 C9.81061933,17.4491373 9.77123218,17.4469555 9.73219671,17.445501 C9.55038284,17.4378648 9.36716228,17.4284104 9.18183169,17.4156834 C9.13787283,17.4127743 9.09391396,17.4098653 9.04960342,17.4065926 C8.83895253,17.3909565 8.62583994,17.372775 8.40815563,17.35023 C8.4000672,17.3495027 8.39233044,17.3487755 8.38424201,17.3480482 C8.14088572,17.3229578 7.89260604,17.2935038 7.63729294,17.2600498 C7.63623792,17.2600498 7.63518291,17.2600498 7.6341279,17.2600498 C7.04754078,17.1833239 6.4264899,17.0847803 5.74882001,16.9640552 L3.05502063,16.4833367 C4.45572597,14.8273668 5.16504625,12.8332212 5.16504625,10.5452628 L5.16504625,7.27477682 C5.17700306,5.29844912 6.53234285,3.7704769 7.86974743,3.13267032 C8.26748726,2.94321921 8.67999727,2.80176724 9.09954069,2.70249632 C9.1030574,2.70176906 9.10692578,2.70213269 9.11044249,2.70140543 C9.97731135,2.49995455 10.8993926,2.4908638 11.7761082,2.67667861 C11.7806799,2.6777695 11.7852516,2.67558772 11.7898234,2.67631498 C12.2484023,2.77522227 12.6999477,2.92503773 13.1349647,3.13048854 C14.4322788,3.74393193 15.7359229,5.26172251 15.7236145,7.27295867 L15.7236145,10.5456264 C15.7236145,12.7394047 16.4884988,14.7793676 17.9437131,16.4840639 L15.2513204,16.9644188 Z" id="Shape" fill-rule="nonzero"></path>
                <path d="M12.7849048,4.48358847 C11.3573387,3.83904647 9.609261,3.83831859 8.19127344,4.48431636 C7.38262633,4.85262607 6.01105769,5.93025954 6.00000557,7.63387394 C5.99890036,7.83477015 6.1624718,7.99854423 6.36619929,8 C6.3669361,8 6.36767291,8 6.36840972,8 C6.57066359,8 6.73570865,7.83877351 6.73681386,7.63824125 C6.74528716,6.30002502 7.84902598,5.44184883 8.49962771,5.14523577 C9.72641352,4.58585629 11.242765,4.58731206 12.4780241,5.14523577 C12.6633314,5.22894252 12.881795,5.14851125 12.966528,4.96581216 C13.051261,4.78274913 12.9694752,4.56693128 12.7849048,4.48358847 Z" id="Path"></path>
                <path d="M1.88489279,7.10370589 C1.73141652,6.96543137 1.48334233,6.96543137 1.32986605,7.10370589 C0.472204504,7.87641641 0,8.90481102 0,10.0000442 C0,11.0952774 0.472204504,12.1240256 1.32986605,12.8963825 C1.40640793,12.965343 1.50689368,13 1.60737942,13 C1.70786517,13 1.80835092,12.965343 1.88489279,12.8963825 C2.03836907,12.758108 2.03836907,12.5346055 1.88489279,12.396331 C1.17560473,11.7572976 0.785044895,10.9064319 0.785044895,10.0000442 C0.785044895,9.09365652 1.17560473,8.24243719 1.88489279,7.60375746 C2.03797655,7.46548294 2.03797655,7.2419804 1.88489279,7.10370589 Z" id="Path"></path>
                <path d="M2.76241093,13 C2.82321853,13 2.88402613,12.9613877 2.93034442,12.884557 C3.02321853,12.7305018 3.02321853,12.4814917 2.93034442,12.3274364 C2.32274347,11.3195761 2.32274347,9.68012845 2.93034442,8.67266208 C3.02321853,8.5186068 3.02321853,8.26959674 2.93034442,8.11554146 C2.83747031,7.96148618 2.68735154,7.96148618 2.59447743,8.11554146 C1.80184086,9.43033037 1.80184086,11.5701621 2.59447743,12.884557 C2.64079572,12.9617817 2.70160333,13 2.76241093,13 Z" id="Path"></path>
                <path d="M19.6701339,7.10370589 C19.5166577,6.96543137 19.2685835,6.96543137 19.1151072,7.10370589 C18.9616309,7.2419804 18.9616309,7.46548294 19.1151072,7.60375746 C19.8243953,8.24279083 20.2149551,9.09365652 20.2149551,10.0000442 C20.2149551,10.9064319 19.8243953,11.7572976 19.1151072,12.396331 C18.9616309,12.5346055 18.9616309,12.758108 19.1151072,12.8963825 C19.1916491,12.965343 19.2921348,13 19.3926206,13 C19.4931063,13 19.5935921,12.965343 19.6701339,12.8963825 C20.5277955,12.1240256 21,11.0952774 21,10.0000442 C21,8.90481102 20.5277955,7.87641641 19.6701339,7.10370589 Z" id="Path"></path>
                <path d="M18.0696556,8.11554146 C17.9767815,8.26959674 17.9767815,8.5186068 18.0696556,8.67266208 C18.6772565,9.68052245 18.6772565,11.3199701 18.0696556,12.3274364 C17.9767815,12.4814917 17.9767815,12.7305018 18.0696556,12.884557 C18.1159739,12.9613877 18.1767815,13 18.2375891,13 C18.2983967,13 18.3592043,12.9613877 18.4055226,12.884557 C19.1981591,11.5697681 19.1981591,9.42993637 18.4055226,8.11554146 C18.3126485,7.96148618 18.1622922,7.96148618 18.0696556,8.11554146 Z" id="Path"></path>
            </g>
        </g>
    </g>
</svg>