<?xml version="1.0" encoding="UTF-8"?>
<svg width="21px" height="21px" viewBox="0 0 21 21" version="1.1" xmlns="http://www.w3.org/2000/svg" xmlns:xlink="http://www.w3.org/1999/xlink">
    <!-- Generator: Sketch 52.4 (67378) - http://www.bohemiancoding.com/sketch -->
    <title>chat-49</title>
    <desc>Created with Sketch.</desc>
    <g id="Boame-mobile-app" stroke="none" stroke-width="1" fill="none" fill-rule="evenodd">
        <g id="Report-a-case" transform="translate(-279.000000, -753.000000)" fill="#000000" fill-rule="nonzero">
            <g id="chat-49" transform="translate(279.000000, 753.000000)">
                <path d="M20.9820463,16.6894 L19.6177142,12.59545 C20.3373311,11.33055 20.71674,9.89485 20.71674,8.4329 C20.71639,3.78315 16.9335011,0 12.2832919,0 C8.99006453,0 5.99819424,1.9257 4.62371194,4.9133 C2.03750118,6.3553 0.283609978,9.1175 0.283609978,12.28325 C0.283609978,13.7452 0.663018892,15.18055 1.3826358,16.4458 L0.0179537365,20.5394 C-0.0226472174,20.66155 0.00675347338,20.7956 0.0946055374,20.8894 C0.161457108,20.96115 0.254559295,21 0.349761532,21 C0.379512231,21 0.40926293,20.99615 0.439013629,20.98845 L4.91491879,19.8107 C6.08709632,20.4036 7.39857714,20.7165 8.7167081,20.7165 C12.0288359,20.7165 14.8999534,18.7964 16.2782858,16.0118 L20.5606364,17.13845 C20.5907371,17.14615 20.6204878,17.15 20.6502385,17.15 C20.7454407,17.15 20.8385429,17.11115 20.9053945,17.0394 C20.9932465,16.9456 21.0226472,16.8112 20.9820463,16.6894 Z M8.7167081,20.01615 C7.81508692,20.01615 6.91801585,19.85445 6.07379601,19.54785 L7.23267324,19.2899 C7.42132767,19.2479 7.54033047,19.061 7.49867949,18.87235 C7.4566785,18.68335 7.26732405,18.56715 7.08111968,18.60635 L4.88026797,19.096 C4.87781791,19.0967 4.87606787,19.09845 4.87361781,19.0988 C4.87151777,19.0995 4.86906771,19.0988 4.86696766,19.09915 L0.886324138,20.14705 L2.09630256,16.51685 C2.12885333,16.4206 2.11730306,16.31455 2.06515183,16.2274 C1.35743521,15.03705 0.983276416,13.6731 0.983276416,12.2829 C0.983276416,9.25855 2.72981745,6.63565 5.26597703,5.36515 C5.31007807,5.3431 5.3538291,5.32035 5.39863015,5.299 C5.46933181,5.2654 5.5410835,5.23355 5.61283518,5.20205 C5.67898674,5.173 5.7454883,5.14465 5.81268988,5.1177 C5.87184127,5.09355 5.93134266,5.06975 5.99154408,5.047 C6.09164643,5.00955 6.1924488,4.97385 6.29395118,4.9406 C6.32510192,4.9301 6.35590264,4.9189 6.38740338,4.90875 C6.53125676,4.86325 6.67686018,4.82195 6.82316362,4.78485 C6.83051379,4.7831 6.83786396,4.7817 6.84521414,4.7796 C6.98206735,4.74565 7.11962058,4.7159 7.25822384,4.6893 C7.28902456,4.68335 7.31982529,4.6781 7.35062601,4.67285 C7.46647873,4.6522 7.58303147,4.634 7.69993422,4.6186 C7.73843512,4.6137 7.77658602,4.60845 7.81543693,4.6039 C7.92848959,4.5906 8.04189225,4.58045 8.15529491,4.5724 C8.19344581,4.5696 8.2312467,4.56575 8.26939759,4.56365 C8.41815109,4.5549 8.56725459,4.54965 8.7163581,4.54965 C12.9808583,4.55 16.4501398,8.0192 16.4501398,12.28325 C16.4501398,12.418 16.4466397,12.5524 16.4396395,12.6861 C16.4364895,12.75015 16.4298393,12.8135 16.4249392,12.8772 C16.4196891,12.9458 16.415839,13.0144 16.4088388,13.08265 C16.4011386,13.15755 16.3902884,13.23175 16.3804882,13.3063 C16.373138,13.36265 16.3668378,13.41935 16.3580876,13.47535 C16.3465374,13.54955 16.332187,13.6227 16.3185367,13.69585 C16.3080365,13.7522 16.2985862,13.8089 16.286686,13.86525 C16.2723356,13.93385 16.2555352,14.0014 16.2394348,14.0693 C16.2247345,14.13055 16.2110842,14.1918 16.1949838,14.2527 C16.1785334,14.3143 16.160333,14.3752 16.1424826,14.43645 C16.1228821,14.5033 16.1036317,14.57015 16.0822811,14.63665 C16.0644307,14.69195 16.0451803,14.7469 16.0262798,14.8015 C16.0017793,14.87255 15.9765787,14.94395 15.949978,15.0143 C15.9303776,15.0661 15.9097271,15.11755 15.8887266,15.169 C15.8603759,15.23935 15.8309752,15.3097 15.8005245,15.37935 C14.6045464,18.1062 11.8800824,20.01615 8.7167081,20.01615 Z M16.5673925,15.3636 C16.5733427,15.3489 16.5768428,15.3335 16.5827929,15.31845 C16.6653948,15.1046 16.7399466,14.8869 16.8053981,14.66535 C16.8158984,14.62965 16.8256986,14.5943 16.8358489,14.5586 C16.8967503,14.3416 16.9499515,14.1218 16.9933526,13.89815 C17.0007027,13.86035 17.0070029,13.82255 17.013653,13.78475 C17.054254,13.5597 17.0875048,13.3322 17.1099053,13.10155 C17.1127054,13.0739 17.1137554,13.0459 17.1162054,13.0179 C17.1372059,12.7757 17.1501562,12.53105 17.1501562,12.28325 C17.1501562,7.63315 13.3669174,3.85 8.7167081,3.85 C8.46750225,3.85 8.22179648,3.86295 7.97819075,3.8843 C7.95859029,3.88605 7.93898983,3.8871 7.91938937,3.88885 C7.67753369,3.9116 7.43882808,3.9459 7.20327255,3.9886 C7.18297207,3.99245 7.16267159,3.9956 7.14272112,3.99945 C6.90821562,4.0439 6.67721019,4.0985 6.45005485,4.16185 C6.42415424,4.1692 6.39860364,4.17655 6.37305304,4.1839 C6.15324788,4.2476 5.93659279,4.3197 5.7244878,4.40055 C5.70838743,4.4065 5.69158703,4.4107 5.67583666,4.41665 C7.06606932,2.13115 9.563728,0.7 12.2832919,0.7 C16.5474421,0.7 20.0167236,4.1692 20.0167236,8.43325 C20.0167236,9.82345 19.6425648,11.18705 18.9348482,12.37775 C18.8830469,12.4649 18.8711467,12.57095 18.9036974,12.6672 L20.1136759,16.29705 L16.5673925,15.3636 Z" id="Shape"></path>
                <path d="M5.5,11 C4.67275,11 4,11.67275 4,12.5 C4,13.32725 4.67275,14 5.5,14 C6.32725,14 7,13.32725 7,12.5 C7,11.67275 6.32725,11 5.5,11 Z M5.5,13.25 C5.086375,13.25 4.75,12.913625 4.75,12.5 C4.75,12.086375 5.086375,11.75 5.5,11.75 C5.913625,11.75 6.25,12.086375 6.25,12.5 C6.25,12.913625 5.913625,13.25 5.5,13.25 Z" id="Shape"></path>
                <path d="M8.5,11 C7.67275,11 7,11.67275 7,12.5 C7,13.32725 7.67275,14 8.5,14 C9.32725,14 10,13.32725 10,12.5 C10,11.67275 9.32725,11 8.5,11 Z M8.5,13.25 C8.086375,13.25 7.75,12.913625 7.75,12.5 C7.75,12.086375 8.086375,11.75 8.5,11.75 C8.913625,11.75 9.25,12.086375 9.25,12.5 C9.25,12.913625 8.913625,13.25 8.5,13.25 Z" id="Shape"></path>
                <path d="M12.5,11 C11.67275,11 11,11.67275 11,12.5 C11,13.32725 11.67275,14 12.5,14 C13.32725,14 14,13.32725 14,12.5 C14,11.67275 13.32725,11 12.5,11 Z M12.5,13.25 C12.086375,13.25 11.75,12.913625 11.75,12.5 C11.75,12.086375 12.086375,11.75 12.5,11.75 C12.913625,11.75 13.25,12.086375 13.25,12.5 C13.25,12.913625 12.913625,13.25 12.5,13.25 Z" id="Shape"></path>
            </g>
        </g>
    </g>
</svg>