<?xml version="1.0" encoding="UTF-8"?>
<svg width="20px" height="19px" viewBox="0 0 20 19" version="1.1" xmlns="http://www.w3.org/2000/svg" xmlns:xlink="http://www.w3.org/1999/xlink">
    <!-- Generator: Sketch 52.4 (67378) - http://www.bohemiancoding.com/sketch -->
    <title>navigation</title>
    <desc>Created with Sketch.</desc>
    <g id="Boame-mobile-app" stroke="none" stroke-width="1" fill="none" fill-rule="evenodd">
        <g id="Report-a-case" transform="translate(-74.000000, -754.000000)" fill="#000000" fill-rule="nonzero">
            <g id="navigation" transform="translate(74.000000, 754.000000)">
                <path d="M19.8904734,0.114707874 C19.7762111,-0.000237229367 19.599976,-0.0322711108 19.4508539,0.0344347364 L0.225735071,8.61951495 C0.0711904467,8.68885888 -0.0190574167,8.84752081 0.00340771666,9.01183578 C0.02587285,9.17615075 0.155628362,9.30654749 0.323342202,9.33368207 L8.94646745,10.739781 L9.93222201,18.6683551 C9.95313782,18.8334238 10.0828933,18.9664586 10.2513818,18.994347 C10.2734596,18.9981157 10.2951501,19 10.3168406,19 C10.4620893,19 10.5980421,18.9204806 10.6638882,18.7904607 L19.9598054,0.544338754 C20.0326234,0.40150533 20.0047357,0.229276109 19.8904734,0.114707874 Z M10.5453652,17.3255702 L9.68084491,10.3696955 C9.6599291,10.203873 9.52939893,10.0708382 9.36013577,10.0433268 L1.69410267,8.79287478 L18.7796113,1.16353484 L10.5453652,17.3255702 Z" id="Shape"></path>
            </g>
        </g>
    </g>
</svg>