<?xml version="1.0" encoding="UTF-8"?>
<svg width="22px" height="20px" viewBox="0 0 22 20" version="1.1" xmlns="http://www.w3.org/2000/svg" xmlns:xlink="http://www.w3.org/1999/xlink">
    <!-- Generator: Sketch 52.4 (67378) - http://www.bohemiancoding.com/sketch -->
    <title>users</title>
    <desc>Created with Sketch.</desc>
    <g id="Boame-mobile-app" stroke="none" stroke-width="1" fill="none" fill-rule="evenodd">
        <g id="Report-a-case" transform="translate(-216.000000, -752.000000)" fill="#000000" fill-rule="nonzero">
            <g id="users" transform="translate(216.000000, 752.000000)">
                <path d="M20.1718,15.596 L16.6690333,13.8592727 C16.3386667,13.6952727 16.1333333,13.3658182 16.1333333,12.9992727 L16.1333333,11.7698182 C16.2173,11.668 16.3056667,11.552 16.3969667,11.424 C16.8512667,10.7876364 17.2153667,10.0792727 17.4801,9.31527273 C17.9974667,9.08 18.3333333,8.57272727 18.3333333,8 L18.3333333,6.54545455 C18.3333333,6.19527273 18.2013333,5.856 17.9666667,5.59090909 L17.9666667,3.65672727 C17.9872,3.45672727 18.0678667,2.26618182 17.1996,1.284 C16.4464667,0.432 15.2243667,0 13.5666667,0 C11.9089667,0 10.6868667,0.432 9.93373333,1.28363636 C9.40756667,1.87890909 9.23046667,2.54945455 9.17693333,3.03090909 C8.54846667,2.70872727 7.8078,2.54545455 6.96666667,2.54545455 C3.15736667,2.54545455 2.93553333,5.76545455 2.93333333,5.81818182 L2.93333333,7.48327273 C2.69573333,7.74 2.56666667,8.03636364 2.56666667,8.33054545 L2.56666667,9.58654545 C2.56666667,9.97890909 2.74376667,10.3447273 3.04736667,10.592 C3.34986667,11.7229091 4.09383333,12.5774545 4.3835,12.8774545 L4.3835,13.8749091 C4.3835,14.1610909 4.22656667,14.4236364 3.95413333,14.5712727 L1.5147,16.0887273 C0.580433333,16.5941818 0,17.564 0,18.6192727 L0,20 L5.13333333,20 L5.86666667,20 L22,20 L22,18.5298182 C22,17.2796364 21.2993,16.1552727 20.1718,15.596 Z M5.13333333,18.4589091 L5.13333333,19.2727273 L0.733333333,19.2727273 L0.733333333,18.6192727 C0.733333333,17.8301818 1.16746667,17.1050909 1.88503333,16.7163636 L4.3241,15.1989091 C4.81286667,14.9345455 5.11646667,14.4276364 5.11646667,13.8749091 L5.11646667,12.5690909 L4.99986667,12.4610909 C4.99033333,12.4523636 4.0161,11.5396364 3.72826667,10.2956364 L3.6949,10.1516364 L3.5695,10.0716364 C3.40083333,9.96327273 3.3,9.78181818 3.3,9.58654545 L3.3,8.33054545 C3.3,8.19963636 3.38983333,8.044 3.54603333,7.90363636 L3.66666667,7.79563636 L3.66593333,5.83927273 C3.67253333,5.73490909 3.86356667,3.27272727 6.96666667,3.27272727 C7.8441,3.27272727 8.58293333,3.47381818 9.16666667,3.87054545 L9.16666667,5.59090909 C8.932,5.856 8.8,6.19527273 8.8,6.54545455 L8.8,8 C8.8,8.11054545 8.81283333,8.21927273 8.83703333,8.32472727 C8.84693333,8.36690909 8.86673333,8.40545455 8.8803,8.44618182 C8.90046667,8.50727273 8.9166,8.57018182 8.94483333,8.628 C8.9452,8.62872727 8.94556667,8.62909091 8.94593333,8.62981818 C9.0398,8.82181818 9.17656667,8.99345455 9.3489,9.13054545 C9.35073333,9.13745455 9.35293333,9.14363636 9.35476667,9.15018182 C9.37676667,9.23345455 9.39986667,9.31636364 9.4248,9.39745455 L9.4545,9.49236364 C9.45963333,9.50909091 9.46586667,9.52618182 9.47136667,9.54290909 C9.4842,9.58218182 9.49666667,9.62109091 9.50986667,9.65963636 C9.53186667,9.72327273 9.55496667,9.78909091 9.58173333,9.86072727 C9.5931,9.89054545 9.60556667,9.91745455 9.6173,9.94690909 C9.64736667,10.0229091 9.67743333,10.0963636 9.70896667,10.1690909 C9.71666667,10.1865455 9.72326667,10.2054545 9.73096667,10.2225455 L9.7515,10.2683636 C9.76103333,10.2894545 9.77093333,10.3083636 9.78046667,10.3290909 C9.8164,10.4069091 9.8516,10.4821818 9.88826667,10.5549091 C9.89413333,10.5665455 9.89963333,10.5792727 9.9055,10.5909091 C9.9286,10.6363636 9.9517,10.6792727 9.9748,10.7229091 C10.0144,10.7978182 10.0532667,10.8683636 10.0921333,10.9367273 C10.1112,10.9701818 10.1299,11.0029091 10.1486,11.0345455 C10.2014,11.124 10.2516333,11.2061818 10.3004,11.2825455 C10.3110333,11.2989091 10.3213,11.316 10.3315667,11.3316364 C10.4203,11.468 10.4973,11.5785455 10.5611,11.6647273 C10.5779667,11.6876364 10.5926333,11.7072727 10.6069333,11.7265455 C10.615,11.7370909 10.626,11.7523636 10.6329667,11.7618182 L10.6329667,12.9650909 C10.6329667,13.3170909 10.4393667,13.64 10.1280667,13.8087273 L9.15786667,14.3334545 L8.98883333,14.3185455 L8.9199,14.4621818 L6.85703333,15.5781818 C5.7937,16.1541818 5.13333333,17.2574545 5.13333333,18.4589091 Z M21.2666667,19.2727273 L5.86666667,19.2727273 L5.86666667,18.4589091 C5.86666667,17.524 6.38073333,16.6647273 7.2083,16.2174545 L10.4793333,14.448 C11.0267667,14.1516364 11.3666667,13.5832727 11.3666667,12.9654545 L11.3666667,11.5043636 L11.3666667,11.504 L11.2955333,11.4196364 L11.2816,11.4032727 C11.2808667,11.4021818 11.2581333,11.3749091 11.2211,11.3269091 C11.2189,11.324 11.2167,11.3210909 11.2141333,11.3181818 C11.1947,11.2930909 11.1719667,11.2629091 11.1459333,11.2269091 C11.1455667,11.2261818 11.1452,11.2258182 11.1448333,11.2250909 C11.0902,11.1498182 11.0216333,11.052 10.9453667,10.9341818 C10.9435333,10.9316364 10.9420667,10.9287273 10.9402333,10.9261818 C10.9043,10.8705455 10.8661667,10.8098182 10.8273,10.7454545 C10.8243667,10.7407273 10.8214333,10.736 10.8185,10.7309091 C10.7356333,10.5930909 10.6476333,10.4370909 10.56,10.2643636 C10.56,10.2643636 10.5596333,10.264 10.5596333,10.2636364 C10.5130667,10.1709091 10.4665,10.0734545 10.4210333,9.972 C10.4148,9.95781818 10.4082,9.944 10.4019667,9.92981818 C10.3818,9.88436364 10.3616333,9.83672727 10.3411,9.78763636 C10.3337667,9.76981818 10.3264333,9.75127273 10.3191,9.73309091 C10.3000333,9.68545455 10.2806,9.63745455 10.2600667,9.58254545 C10.2226667,9.48363636 10.1874667,9.38036364 10.1537333,9.27381818 L10.1335667,9.20909091 C10.1313667,9.20181818 10.1288,9.19454545 10.1266,9.18690909 C10.0921333,9.072 10.0591333,8.95454545 10.0312667,8.83381818 L9.9979,8.68981818 L9.87286667,8.60981818 C9.6602,8.47381818 9.53333333,8.24581818 9.53333333,8 L9.53333333,6.54545455 C9.53333333,6.34145455 9.6206,6.15127273 9.779,6.00909091 L9.9,5.90109091 L9.9,3.63636364 L9.9,3.50763636 L9.8901,3.5 C9.87763333,3.23745455 9.8934,2.43272727 10.4852,1.76327273 C11.0927667,1.07563636 12.1297,0.727272727 13.5666667,0.727272727 C14.9985,0.727272727 16.0332333,1.07309091 16.6415333,1.75563636 C17.3554333,2.556 17.2373667,3.58 17.2366333,3.58872727 L17.2333333,5.90109091 L17.3543333,6.00945455 C17.5127333,6.15127273 17.6,6.34145455 17.6,6.54545455 L17.6,8 C17.6,8.31745455 17.3902667,8.59527273 17.0786,8.69054545 L16.896,8.74618182 L16.8373333,8.92618182 C16.5920333,9.68290909 16.2426,10.3818182 15.7982,11.0036364 C15.6893,11.1567273 15.5833333,11.2923636 15.4913,11.396 L15.4,11.4992727 L15.4,12.9992727 C15.4,13.6429091 15.7604333,14.2214545 16.3408667,14.5094545 L19.8436333,16.2461818 C20.7214333,16.6814545 21.2666667,17.5563636 21.2666667,18.5298182 L21.2666667,19.2727273 Z" id="Shape"></path>
            </g>
        </g>
    </g>
</svg>